<svg xmlns="http://www.w3.org/2000/svg" viewBox="0 0 939.72 860.02"><defs><style>.cls-1{fill:#f2f2f2;}.cls-11,.cls-2{fill:#1a1a1a;}.cls-3{fill:#fff;}.cls-4{font-size:34.8px;font-family:Qanelas-Medium, Qanelas;}.cls-5{letter-spacing:-0.06em;}.cls-6{letter-spacing:-0.02em;}.cls-7{letter-spacing:-0.01em;}.cls-8{letter-spacing:-0.03em;}.cls-9{letter-spacing:0em;}.cls-10{fill:none;stroke:#212121;stroke-miterlimit:10;stroke-width:2px;}.cls-11{stroke:#fff;stroke-linecap:round;stroke-linejoin:round;}</style></defs><title>c1</title><g id="Camada_2" data-name="Camada 2"><g id="Aplicativo_Mobile" data-name="Aplicativo Mobile"><g id="Orientacao_Pesquisa"><path class="cls-1" d="M0,149.07A149.08,149.08,0,1,0,149.07,0,149.07,149.07,0,0,0,0,149.07Z"/><path class="cls-1" d="M788.86,501.29A149.08,149.08,0,1,0,937.94,650.37,149.08,149.08,0,0,0,788.86,501.29Z"/><rect class="cls-2" x="682.75" y="598.64" width="212.23" height="103.46" transform="translate(1577.72 1300.74) rotate(180)"/><path class="cls-1" d="M693.2,608.78V692H884.52V608.78ZM858,681.56H804.36c8.52-6.23,14.17-17.74,14.17-30.6,0-13.67-6.39-25.54-15.82-31.78H858c0,8.32,7.76,18.86,16.08,18.86v30.5C865.8,668.54,858,673.25,858,681.56ZM703.6,638c8.32,0,15.8-10.54,15.8-18.86h53.36C763.33,625.42,757,637.29,757,651c0,12.86,5.65,24.37,14.16,30.6H719.4c0-8.31-7.48-13-15.8-13Z"/><path class="cls-2" d="M798.8,640.74a6.78,6.78,0,0,0-1.34-1.08,14.12,14.12,0,0,0-2-1.11,17.18,17.18,0,0,0-2.54-.91,14.25,14.25,0,0,0-2.85-.47v10.41l1,.2a43.81,43.81,0,0,1,4.9,1.46,14.16,14.16,0,0,1,3.7,2,7.92,7.92,0,0,1,2.34,2.84,9.28,9.28,0,0,1,.83,4.1,10,10,0,0,1-1,4.56,8.8,8.8,0,0,1-2.64,3.14,11.81,11.81,0,0,1-3.92,1.89,19.31,19.31,0,0,1-4.8.68v5.28h-2.62V668.3a24.92,24.92,0,0,1-6.89-1.43,22,22,0,0,1-6-3.29l2.57-4.83a8.48,8.48,0,0,0,1.61,1.3,17.41,17.41,0,0,0,2.46,1.36,22.8,22.8,0,0,0,3.1,1.16,19.79,19.79,0,0,0,3.49.7V652.86a5.79,5.79,0,0,0-.63-.18,6.29,6.29,0,0,1-.62-.17,42.36,42.36,0,0,1-4.66-1.49,11.6,11.6,0,0,1-3.29-1.88,7.3,7.3,0,0,1-2-2.59,8.66,8.66,0,0,1-.68-3.6,10.5,10.5,0,0,1,.86-4.38,9.57,9.57,0,0,1,2.41-3.29,11.46,11.46,0,0,1,3.65-2.16,16.75,16.75,0,0,1,4.6-1v-5.09h2.62v5.09a19.38,19.38,0,0,1,6,1.3,21.81,21.81,0,0,1,4.88,2.67Zm-16.6,1.31a3.62,3.62,0,0,0,1.48,3.16,14.28,14.28,0,0,0,4.5,1.87v-9.91a7.3,7.3,0,0,0-4.53,1.43A4.35,4.35,0,0,0,782.2,642.05Zm14.53,16.7A3.72,3.72,0,0,0,795,655.4a19.1,19.1,0,0,0-4.93-2v10a9.18,9.18,0,0,0,5-1.2A3.81,3.81,0,0,0,796.73,658.75Z"/><path class="cls-3" d="M839,650.37a8.13,8.13,0,1,0,8.12-8.12A8.13,8.13,0,0,0,839,650.37Z"/><path class="cls-3" d="M738.76,650.37a8.13,8.13,0,1,1-8.12-8.12A8.13,8.13,0,0,1,738.76,650.37Z"/><text class="cls-4" transform="translate(0 351.23)">1 <tspan class="cls-5" x="21.05" y="0">K</tspan><tspan x="39.63" y="0">G DE </tspan><tspan class="cls-6" x="128.3" y="0">B</tspan><tspan x="151.44" y="0">ANAN</tspan><tspan class="cls-7" x="240.03" y="0">A</tspan><tspan x="261.85" y="0">S</tspan></text><text class="cls-4" transform="translate(691.19 851.39)"> <tspan class="cls-6" x="8.7" y="0">5</tspan><tspan x="27.25" y="0" xml:space="preserve">, 00  REAIS</tspan></text><text class="cls-4" transform="translate(648.26 346.1)">COMPRA<tspan class="cls-8" x="146.74" y="0">D</tspan><tspan class="cls-7" x="171.44" y="0">A</tspan><tspan x="193.26" y="0">S </tspan><tspan class="cls-9" x="221.06" y="0">P</tspan><tspan x="241.25" y="0">OR</tspan></text><text class="cls-4" transform="translate(6.29 719.63)">SE TERÁ JOGADO NO</text><line class="cls-10" x1="404.96" y1="337.56" x2="508.35" y2="337.56"/><path d="M517,326.32a1.19,1.19,0,0,0,.34,1.62l14.81,9.75-15,9.49a1.17,1.17,0,0,0-.37,1.61,1.14,1.14,0,0,0,1.59.37l16.51-10.46a1.18,1.18,0,0,0,.55-1,1.21,1.21,0,0,0-.53-1L518.58,326a1.28,1.28,0,0,0-.62-.19A1.17,1.17,0,0,0,517,326.32Z"/><line class="cls-10" x1="541.73" y1="707.85" x2="438.33" y2="707.85"/><path d="M429.7,696.61a1.17,1.17,0,0,1-.34,1.62L414.55,708l15,9.49a1.18,1.18,0,0,1,.37,1.61,1.15,1.15,0,0,1-1.59.37L411.79,709a1.18,1.18,0,0,1,0-2l16.33-10.76a1.2,1.2,0,0,1,.62-.18A1.13,1.13,0,0,1,429.7,696.61Z"/><line class="cls-10" x1="792.94" y1="376.32" x2="792.94" y2="452.71"/><path d="M804.18,459.08a1.46,1.46,0,0,0-1.62.26l-9.75,10.94-9.49-11.07a1.44,1.44,0,0,0-1.61-.27.74.74,0,0,0-.37,1.18l10.46,12.2a1.32,1.32,0,0,0,1,.4,1.34,1.34,0,0,0,1-.39l10.76-12.06a.75.75,0,0,0,.18-.46A.82.82,0,0,0,804.18,459.08Z"/><line class="cls-10" x1="174.88" y1="754.99" x2="174.88" y2="831.38"/><path d="M186.13,837.75a1.46,1.46,0,0,0-1.62.26L174.76,849l-9.49-11.07a1.46,1.46,0,0,0-1.62-.27.74.74,0,0,0-.37,1.18L173.75,851a1.28,1.28,0,0,0,1,.4,1.32,1.32,0,0,0,1-.39l10.75-12.06a.69.69,0,0,0,.19-.46A.86.86,0,0,0,186.13,837.75Z"/><path class="cls-11" d="M210.82,33.36l5.57.84a5.33,5.33,0,0,1,4.42,4c1.35,5.67,2,14.55-8.4,35.47-.5,1,7.7,23.75,4,39.68,0,0-6.65,72.74-79.25,89.05-58.48,13.14-98.53-4.2-111.9-11.44a42.27,42.27,0,0,1-7.74-5.4l-9.39-8.22a13.27,13.27,0,0,1,2.25-21.63,13.83,13.83,0,0,1,7.13-1.63c8.09.32,30.37,5.68,44.13,5.17,46.59-1.71,73.93.15,111.5-51.48l12.75-24.15S191.18,72,199.81,72.37c8.08.37,13.37-23.72,9.2-36.92A1.64,1.64,0,0,1,210.82,33.36Z"/><path class="cls-11" d="M209.12,29.94l5.61-.47a5.35,5.35,0,0,1,5.24,2.9c2.62,5.21,5.3,13.7,0,36.45-.25,1.1,13,21.34,13,37.7,0,0,10.31,72.3-56.58,104.92-49.71,24.24-90.14,19.61-107.62,15.64a59,59,0,0,1-14.46-5.38l-9.25-4.89a13.27,13.27,0,0,1-2.8-21.57A13.74,13.74,0,0,1,48.85,192c7.94-1.56,30.85-1.48,44.13-5.15,44.94-12.42,72-16.91,96.62-75.81l6.84-26.44s2.47-12.59,11-14.19c7.95-1.5,7.54-26.16.44-38A1.63,1.63,0,0,1,209.12,29.94Z"/><path class="cls-11" d="M208.12,31.9l5.42-1.54a5.34,5.34,0,0,1,5.69,1.83c3.58,4.6,7.85,12.41,7,35.77,0,1.13,16.84,18.44,20,34.48,0,0,24.05,69-35.28,113.87S98.77,251.59,98.77,251.59L83.55,247c-8.83-2.65-12.82-13.38-7.25-20.73a13.75,13.75,0,0,1,5.82-4.43c7.5-3.06,30-7.4,42.31-13.56,41.7-20.85,67.36-30.47,80.19-93L206.22,88s0-12.83,8-16c7.52-3,2.35-27.16-6.91-37.43A1.63,1.63,0,0,1,208.12,31.9Z"/><ellipse class="cls-11" cx="77.12" cy="234.75" rx="4.81" ry="6.42"/><ellipse class="cls-11" cx="42.69" cy="203.96" rx="4.81" ry="6.42"/><ellipse class="cls-11" cx="8.27" cy="165.9" rx="6.42" ry="4.81" transform="translate(-151.89 121.86) rotate(-71.77)"/></g></g></g></svg>