<svg xmlns="http://www.w3.org/2000/svg" viewBox="0 0 943.68 1009.1"><defs><style>.cls-1{fill:#f2f2f2;}.cls-2{fill:#999;}.cls-15,.cls-3{font-size:34.8px;font-family:Qanelas-Medium, Qanelas;}.cls-4{letter-spacing:-0.04em;}.cls-5{letter-spacing:0em;}.cls-6{letter-spacing:-0.02em;}.cls-7{letter-spacing:-0.01em;}.cls-8{letter-spacing:-0.03em;}.cls-9{letter-spacing:-0.03em;}.cls-10{letter-spacing:-0.03em;}.cls-11{letter-spacing:-0.05em;}.cls-12{letter-spacing:0em;}.cls-13{letter-spacing:0em;}.cls-14{fill:none;stroke:#212121;stroke-miterlimit:10;stroke-width:2px;}.cls-15,.cls-19,.cls-20{fill:#1a1a1a;}.cls-16{letter-spacing:-0.02em;}.cls-17{letter-spacing:-0.05em;}.cls-18{letter-spacing:0em;}.cls-19{stroke:#fff;stroke-linecap:round;stroke-linejoin:round;}</style></defs><title>c2</title><g id="Camada_2" data-name="Camada 2"><g id="Aplicativo_Mobile" data-name="Aplicativo Mobile"><g id="Orientacao_Pesquisa"><path class="cls-1" d="M645.53,479.57A149.08,149.08,0,1,0,794.61,330.49,149.08,149.08,0,0,0,645.53,479.57Z"/><path class="cls-1" d="M174.76,0A149.08,149.08,0,1,0,323.83,149.07,149.07,149.07,0,0,0,174.76,0Z"/><path class="cls-1" d="M797.38,583.46A103.93,103.93,0,1,0,690.72,482.34,103.91,103.91,0,0,0,797.38,583.46Zm6.75-13.69L804,563a7.84,7.84,0,1,0-15.68.42l.17,6.72a88.35,88.35,0,0,1-81.88-77.85l6.49-.18a7.84,7.84,0,1,0-.42-15.68l-6.49.18a88.37,88.37,0,0,1,77.62-82.11l.18,6.72a7.84,7.84,0,1,0,15.68-.42l-.18-6.76a88.38,88.38,0,0,1,82.38,77.88l-7,.19a7.84,7.84,0,0,0,.42,15.68l7-.19A88.37,88.37,0,0,1,804.13,569.77Z"/><path class="cls-1" d="M745.24,527.63l47.43-47.74a2.45,2.45,0,0,1,0-.27,8.68,8.68,0,0,1,.12-1.7l-30.41-38.09a5.88,5.88,0,0,1,9.21-7.32L802,470.58a8.82,8.82,0,0,1-.27,17.63l-.69,0-47.43,47.73a5.88,5.88,0,1,1-8.34-8.29Z"/><path class="cls-2" d="M796.25,742.54a7.64,7.64,0,0,1-3.36,1.62,8.5,8.5,0,0,1,2.27,4.4,43,43,0,0,0,.86,6.23c-.75-1.68-.39-4.23-.48-6.07a47.21,47.21,0,0,1-.06-4.76c.59-.27.62-1.06.85-1.57Z"/><text class="cls-3" transform="translate(667.28 689.06)">40 MINU<tspan class="cls-4" x="130.77" y="0">T</tspan><tspan class="cls-5" x="146.77" y="0">O</tspan><tspan x="174.44" y="0">S DE </tspan><tspan x="14.32" y="41.76">TRA</tspan><tspan class="cls-6" x="75.84" y="41.76">B</tspan><tspan x="98.98" y="41.76">ALHO DE</tspan><tspan x="0.24" y="83.51" xml:space="preserve"> UM BR</tspan><tspan class="cls-7" x="112.99" y="83.51">A</tspan><tspan x="134.8" y="83.51">SILEI</tspan><tspan class="cls-8" x="205.72" y="83.51">R</tspan><tspan x="226.56" y="83.51">O</tspan><tspan x="-17.59" y="125.27" xml:space="preserve"> DE REN</tspan><tspan class="cls-9" x="105.56" y="125.27">D</tspan><tspan x="130.26" y="125.27">A MÉDIA </tspan></text><text class="cls-3" transform="translate(138.62 353.46)">LI<tspan class="cls-10" x="25.33" y="0">X</tspan><tspan x="44.44" y="0">O</tspan></text><text class="cls-3" transform="translate(703.56 146.06)">N<tspan class="cls-9" x="22.1" y="0">Ã</tspan><tspan x="43.32" y="0">O </tspan><tspan class="cls-5" x="79.86" y="0">S</tspan><tspan x="98.79" y="0">Ó </tspan><tspan class="cls-5" x="135.32" y="0">O</tspan><tspan x="162.99" y="0">S</tspan></text><text class="cls-3" transform="translate(26.92 478.62)">M<tspan class="cls-7" x="28.01" y="0">A</tspan><tspan x="49.83" y="0">S </tspan><tspan class="cls-11" x="77.63" y="0">T</tspan><tspan x="93.26" y="0">AMBÉM </tspan><tspan class="cls-12" x="222.04" y="0">O</tspan><tspan class="cls-13" x="249.7" y="0">S </tspan></text><text class="cls-3" transform="translate(704.13 1000.41)">U<tspan class="cls-7" x="21.57" y="0">S</tspan><tspan class="cls-13" x="40.3" y="0">AD</tspan><tspan class="cls-5" x="88.18" y="0">O</tspan><tspan x="115.84" y="0">S NA</tspan></text><line class="cls-14" x1="421.77" y1="134.28" x2="525.17" y2="134.28"/><path d="M533.8,123a1.18,1.18,0,0,0,.34,1.62L549,134.41l-15,9.49a1.18,1.18,0,0,0-.37,1.61,1.16,1.16,0,0,0,1.6.37l16.51-10.46a1.18,1.18,0,0,0,.55-1,1.21,1.21,0,0,0-.53-1L535.4,122.69a1.17,1.17,0,0,0-.62-.18A1.13,1.13,0,0,0,533.8,123Z"/><line class="cls-14" x1="797.95" y1="203.8" x2="797.95" y2="280.19"/><path d="M809.19,286.56a1.44,1.44,0,0,0-1.61.26l-9.75,10.94-9.49-11.07a1.46,1.46,0,0,0-1.62-.27.74.74,0,0,0-.37,1.18l10.46,12.2a1.44,1.44,0,0,0,2,0l10.75-12.06a.74.74,0,0,0,.19-.46A.85.85,0,0,0,809.19,286.56Z"/><line class="cls-14" x1="536.2" y1="478.12" x2="432.81" y2="478.12"/><path d="M424.18,466.87a1.18,1.18,0,0,1-.34,1.62L409,478.24l15,9.49a1.19,1.19,0,0,1,.37,1.61,1.17,1.17,0,0,1-1.6.38l-16.51-10.47a1.17,1.17,0,0,1,0-2l16.33-10.75a1.1,1.1,0,0,1,.62-.19A1.17,1.17,0,0,1,424.18,466.87Z"/><line class="cls-14" x1="153.65" y1="504.44" x2="153.65" y2="580.84"/><path d="M164.9,587.21a1.46,1.46,0,0,0-1.62.26l-9.75,10.94L144,587.34a1.44,1.44,0,0,0-1.61-.27c-.55.25-.72.78-.38,1.17l10.47,12.21a1.32,1.32,0,0,0,1,.4,1.36,1.36,0,0,0,1-.39l10.75-12.07a.66.66,0,0,0,.19-.45A.86.86,0,0,0,164.9,587.21Z"/><line class="cls-14" x1="409.12" y1="992.67" x2="513.36" y2="992.67"/><path d="M522.06,982.93a.94.94,0,0,0,.35,1.4l14.93,8.44-15.1,8.22a.94.94,0,0,0-.38,1.4,1.29,1.29,0,0,0,1.61.32l16.65-9.06a.95.95,0,0,0,0-1.71l-16.47-9.31a1.29,1.29,0,0,0-1.61.3Z"/><path class="cls-1" d="M171.66,643.9A149.08,149.08,0,1,0,320.74,793,149.07,149.07,0,0,0,171.66,643.9Z"/><path class="cls-1" d="M121.56,946.37c-.7.29-1.42.58-2.15.86m4.16-13.69a1.85,1.85,0,0,0,.37-.19c0,.06,0,.12,0,.18Zm1.17,7.14.28-.1a8.26,8.26,0,0,0,1.07-.54,16.68,16.68,0,0,1,.86,1.82A9.38,9.38,0,0,0,124.74,940.68Z"/><path class="cls-1" d="M113,837.73c-3.06,1-4.7,2-3.24,5a34.7,34.7,0,0,0,5.94,8c5.9,6.17,15.14,8.33,23,11.16,10.26,3.7,19.4,2.41,30,1.75,7.36-.46,42.48-2.48,37.23-16-2.69-6.9-9.34-8.1-15.76-8.72-15.19-1.46-30-.71-45.12-3.54-5.07-.95-10.37.42-15.6.5C123.8,836,118.41,835.93,113,837.73Z"/><path class="cls-1" d="M170.13,860.7c-3,1-4.69,2.06-3.24,5a34.85,34.85,0,0,0,5.94,8c5.91,6.18,15.15,8.34,23,11.16,10.26,3.7,19.4,2.41,30,1.75,7.36-.46,42.48-2.47,37.22-16-2.68-6.91-9.33-8.11-15.76-8.73-15.19-1.45-30-.71-45.12-3.54-5.06-1-10.37.42-15.6.5C181,859,175.56,858.91,170.13,860.7Z"/><path class="cls-1" d="M250.56,865c-.49,4,1.92,8.39,5,11.75.38.41.76.81,1.14,1.19-2.11,1-5.13,1-8.05.74h0a57.05,57.05,0,0,1-5.88-1c-2-.43-4.22-1.42-6.29-1.73-2.23-.33-4.29.94-6.57,1.81-5.87,2.23-12.71,4.36-19.23,4.92-1.39.11-2.86.23-4.34.3-3.91.18-7.93,0-11-1.52a8.22,8.22,0,0,1-2.43-1.55,15.33,15.33,0,0,0,4.93-2.47h-.12c-6.49,0-16.19-6.84-18.29-11.7,9.54-1.28,13.45-12.2,15.52-18.51,1.15-3.53,1.69-7.16,2.78-10.71.24-.8.52-2.25,1-3.49a4.16,4.16,0,0,1,1.3-2c1.37-.93,3.72-.31,5.39-.83l6-.63,30.4-3.19,2.36-.24h.09a2.18,2.18,0,0,0,0,.25c0,.31,0,.63,0,1a81.31,81.31,0,0,0,3.35,20.43c1.5,5.13,2.88,16.8,9.54,18.9A11.67,11.67,0,0,1,250.56,865Z"/><path class="cls-1" d="M210.43,855.46c-2.56,6.4-4.82,13.56-9.34,18.82a19.73,19.73,0,0,1-3.45,3.18c-6.49,0-16.19-6.84-18.29-11.7,9.54-1.28,13.45-12.2,15.52-18.51,1.15-3.53,1.69-7.16,2.78-10.71.24-.8.52-2.25,1-3.49a1.47,1.47,0,0,1,0-.36c0-2.09,2.54-2.4,3.49-3.93,1.21-2-.47-3,2.92-4.94a19,19,0,0,1,2.17-1.08,5.89,5.89,0,0,1,1.07.79,10.94,10.94,0,0,1,3.11,6.06,70,70,0,0,1,.85,7.61c.06.56.11,1.1.15,1.64C212.87,844.66,212.68,849.82,210.43,855.46Z"/><path class="cls-1" d="M244.24,827.35c-.38,1.31-2.26,2.69-3.6,3.33a5.84,5.84,0,0,1-.82.33,5.47,5.47,0,0,1,.74.22c2.1.81,1.24,2.26-.27,3.51a14.59,14.59,0,0,1-3.67,2.17,43.56,43.56,0,0,1-12.86,2.1,86.64,86.64,0,0,1-11.39-.17c-1.16-.11-2.32-.27-3.47-.47-2.57-.47-9.68-2.25-10.25-5.32a1.47,1.47,0,0,1,0-.36c0-2.09,2.54-2.4,3.49-3.93,1.21-2-.47-3,2.92-4.94a19,19,0,0,1,2.17-1.08c6.68-2.82,13.22-1,20.44-1,3.64,0,11.51-.26,15.07,2.63a4.91,4.91,0,0,1,1.43,1.84l.1.24v0A1.45,1.45,0,0,1,244.24,827.35Z"/><path class="cls-1" d="M227.93,836.31a51.49,51.49,0,0,1-12.76,1,16.93,16.93,0,0,1-6.85-1.44c-.76-.37-2-1.55-1.91-2.49.14-1.31,1.43-.41,1.8-1.08s-.74-2.35-.22-3.47c.36-.78,1.13-2,2-2.22s1.72-.08,2.6-.35c4.61-1.4,9.39-.8,14.23-1,2.41-.11,4.87-.38,7.26-.72,1.42-.21,4.78-.84,5.78.62,1.23,1.8-1.76,3.85-2.75,4.89-.74.77-.35.91-.48,1.77a4.26,4.26,0,0,1-1.35,2.2C233.09,836.11,230.62,835.73,227.93,836.31Z"/><text class="cls-15" transform="translate(0 1000.47)">R<tspan class="cls-12" x="21.92" y="0">E</tspan><tspan x="39.77" y="0">CU</tspan><tspan class="cls-16" x="87.83" y="0">R</tspan><tspan class="cls-5" x="109.23" y="0">SO</tspan><tspan x="155.82" y="0">S N</tspan><tspan class="cls-17" x="205.72" y="0">A</tspan><tspan class="cls-18" x="226.14" y="0">TURAIS</tspan></text><g id="Icone_Lixo" data-name="Icone Lixo"><rect class="cls-19" x="95.68" y="93.83" width="166.39" height="166.39"/><path class="cls-19" d="M228.36,83.31c0-.35,0-.7,0-1a49.5,49.5,0,1,0-99,0c0,.35,0,.7,0,1.05Z"/><rect class="cls-19" x="72.9" y="62.24" width="212.35" height="44.23"/><line class="cls-19" x1="129.39" y1="130.68" x2="129.37" y2="238.09"/><line class="cls-19" x1="175.72" y1="130.69" x2="175.7" y2="238.1"/><line class="cls-19" x1="228.38" y1="130.7" x2="228.36" y2="238.11"/></g><path class="cls-19" d="M800.5,576.76a107.95,107.95,0,1,1,108-107.94A107.94,107.94,0,0,1,800.5,576.76Z"/><path class="cls-19" d="M797.13,350.75A123.13,123.13,0,1,0,920.25,473.88,123.13,123.13,0,0,0,797.13,350.75Zm0,215.52a92.4,92.4,0,1,1,92.39-92.39A92.39,92.39,0,0,1,797.13,566.27Z"/><rect class="cls-19" x="792.96" y="440.63" width="10.01" height="46.47" rx="1.17" ry="1.17"/><rect class="cls-19" x="805.41" y="466.53" width="10.01" height="35.15" rx="1.17" ry="1.17" transform="translate(1294.52 -326.31) rotate(90)"/><path class="cls-20" d="M171.46,834.11a57.43,57.43,0,0,1-5.08,4.91c-8.37,6.12-26.84,16.53-53.64,14.55-37.53-2.78-53.17-55.25-53.17-55.25S45.33,753.84,46,719.79c0,0,77-5,117.45,25.36,2.78,2.09,39.62,28.15,13.21,79.23l16,26.41s8-17,12.16-18.07c0,0-13.17-17-4.17-41,10.43-27.8,68.11-34.75,96.6-33.36,0,0,0,54.55-26.06,82.35C245.8,867.8,210,840,210,840s-13.21,19.8-7.3,41.35c1.29,4.7-21.2,5.91-21.2,5.91S185,855.31,171.46,834.11Z"/></g></g></g></svg>