<svg xmlns="http://www.w3.org/2000/svg" viewBox="0 0 399.29 413.99"><defs><style>.cls-1{fill:#f2f2f2;}.cls-2{font-size:40.41px;font-family:Qanelas-Medium, Qanelas;}.cls-3{letter-spacing:-0.06em;}.cls-4{letter-spacing:-0.02em;}.cls-5{letter-spacing:-0.01em;}.cls-6{letter-spacing:0em;}.cls-7{fill:#1a1a1a;stroke:#fff;stroke-linecap:round;stroke-linejoin:round;}</style></defs><title>c5</title><g id="Camada_2" data-name="Camada 2"><g id="Aplicativo_Mobile" data-name="Aplicativo Mobile"><g id="Orientacao_Pesquisa"><path class="cls-1" d="M53,173.14A173.14,173.14,0,1,0,226.15,0,173.14,173.14,0,0,0,53,173.14Z"/><text class="cls-2" transform="translate(0 403.96)">1 <tspan class="cls-3" x="24.45" y="0">K</tspan><tspan x="46.03" y="0">G DE </tspan><tspan class="cls-4" x="149" y="0">B</tspan><tspan x="175.88" y="0">ANAN</tspan><tspan class="cls-5" x="278.77" y="0">A</tspan><tspan class="cls-6" x="304.11" y="0">S</tspan></text><path class="cls-7" d="M277.51,65.64l5.57.83a5.37,5.37,0,0,1,4.42,4c1.35,5.67,2,14.54-8.4,35.46-.5,1,7.7,23.76,4,39.69,0,0-6.65,72.73-79.25,89.05-58.49,13.14-98.53-4.2-111.9-11.44a42.42,42.42,0,0,1-7.74-5.4l-9.4-8.22A13.27,13.27,0,0,1,77.05,188a13.83,13.83,0,0,1,7.13-1.63c8.09.32,30.36,5.68,44.13,5.17,46.59-1.72,73.93.14,111.5-51.48l12.75-24.16s5.31-11.68,13.93-11.28c8.09.38,13.38-23.72,9.21-36.91A1.63,1.63,0,0,1,277.51,65.64Z"/><path class="cls-7" d="M275.81,62.21l5.61-.47a5.35,5.35,0,0,1,5.23,2.91c2.63,5.2,5.3,13.69,0,36.44-.26,1.11,13,21.35,13,37.7,0,0,10.31,72.31-56.58,104.93C193.39,268,153,263.33,135.48,259.35A58.82,58.82,0,0,1,121,254l-9.25-4.89a13.28,13.28,0,0,1-2.8-21.57,13.8,13.8,0,0,1,6.57-3.23c7.94-1.55,30.85-1.47,44.13-5.14,44.94-12.42,72-16.91,96.62-75.81l6.83-26.44s2.48-12.59,11-14.19c8-1.5,7.55-26.17.45-38A1.64,1.64,0,0,1,275.81,62.21Z"/><path class="cls-7" d="M274.81,64.18l5.42-1.55a5.35,5.35,0,0,1,5.69,1.84c3.57,4.6,7.84,12.4,7,35.76,0,1.14,16.84,18.45,20.05,34.49,0,0,24.05,69-35.29,113.86s-112.26,35.28-112.26,35.28l-15.22-4.57c-8.83-2.66-12.82-13.39-7.25-20.73a13.85,13.85,0,0,1,5.82-4.44c7.49-3.05,30-7.39,42.31-13.56,41.7-20.85,67.36-30.47,80.19-93l1.6-27.27s0-12.83,8-16c7.52-3,2.35-27.15-6.91-37.43A1.62,1.62,0,0,1,274.81,64.18Z"/><ellipse class="cls-7" cx="143.81" cy="267.03" rx="4.81" ry="6.42"/><ellipse class="cls-7" cx="109.38" cy="236.24" rx="4.81" ry="6.42"/><ellipse class="cls-7" cx="74.96" cy="198.17" rx="6.42" ry="4.81" transform="translate(-136.72 207.38) rotate(-71.77)"/></g></g></g></svg>