<svg xmlns="http://www.w3.org/2000/svg" viewBox="0 0 138.06 130.81"><defs><style>.cls-1{fill:#f2f2f2;stroke:#c63b34;stroke-miterlimit:10;stroke-width:4px;}</style></defs><title>Consumismo</title><g id="Camada_2" data-name="Camada 2"><g id="Aplicativo_Mobile" data-name="Aplicativo Mobile"><g id="Consumismo"><g id="Icone_AVDN" data-name="Icone AVDN"><rect class="cls-1" x="24.89" y="62.56" width="18.7" height="67.34" rx="9.35" ry="9.35" transform="translate(-26.92 14.42) rotate(-17.19)"/><path class="cls-1" d="M84.88,8.69,25.34,19A27.49,27.49,0,0,0,6.39,32.1L5.83,33a27.48,27.48,0,0,0,.82,29.29h0A27.5,27.5,0,0,0,23.74,73.91L84.88,87a2.69,2.69,0,0,0,2.68-2.68V11.37A2.69,2.69,0,0,0,84.88,8.69Z"/><rect class="cls-1" x="80.2" y="2" width="12.04" height="94.56" rx="6.02" ry="6.02"/><line class="cls-1" x1="108.03" y1="49.51" x2="138.06" y2="49.51"/><line class="cls-1" x1="107.95" y1="36.43" x2="128.65" y2="15.73"/><line class="cls-1" x1="107.95" y1="62.52" x2="128.65" y2="83.23"/></g></g></g></g></svg>