<svg xmlns="http://www.w3.org/2000/svg" viewBox="0 0 395 395"><defs><style>.cls-1{fill:#1a1a1a;stroke-width:4px;}.cls-1,.cls-2{stroke:#1a1a1a;stroke-miterlimit:10;}.cls-2{fill:#fff;stroke-width:6px;}</style></defs><title>doar</title><g id="Camada_2" data-name="Camada 2"><g id="Aplicativo_Mobile" data-name="Aplicativo Mobile"><g id="Orientacao_Pesquisa"><path class="cls-1" d="M393,197.5c0,108-87.53,195.5-195.5,195.5A195.47,195.47,0,0,1,2,197.5C2,89.53,89.53,2,197.5,2S393,89.53,393,197.5Z"/><rect class="cls-2" x="88.46" y="127.67" width="220.07" height="64.59"/><rect class="cls-2" x="100.42" y="192.26" width="196.15" height="138.74"/><rect class="cls-2" x="169.8" y="127.67" width="57.41" height="203.33"/><path class="cls-2" d="M246.41,125.32l-53.39.47,27.64-45.67h0a29.78,29.78,0,0,1,52,.31h0c11.84,20.09-3,45.37-26.27,44.89Z"/><path class="cls-2" d="M168.87,80.42l27.46,45.25-52.93.1h0c-23.11.73-37.82-24.32-26.11-44.49h0c11.12-20.49,40.17-21,51.58-.86Z"/></g></g></g></svg>