<svg xmlns="http://www.w3.org/2000/svg" viewBox="0 0 395 397.89"><defs><style>.cls-1{fill:#1a1a1a;}.cls-2,.cls-3{fill:#fff;stroke-miterlimit:10;}.cls-2{stroke:#1a1a1a;stroke-width:5px;}.cls-3{stroke:#bcbcbc;stroke-width:3px;}.cls-4{font-size:35px;fill:#f2f2f2;font-family:Qanelas-Medium, Qanelas;}.cls-5{letter-spacing:-0.02em;}.cls-6{letter-spacing:-0.04em;}</style></defs><title>lancamento</title><g id="Camada_2" data-name="Camada 2"><g id="Aplicativo_Mobile" data-name="Aplicativo Mobile"><g id="Consumo_do_Lixo" data-name="Consumo do Lixo"><circle class="cls-1" cx="193.63" cy="152.6" r="151.88"/><rect class="cls-1" x="29.46" width="346.08" height="383.37"/><rect class="cls-2" x="131.71" y="118.04" width="127.1" height="37.3"/><rect class="cls-2" x="138.62" y="155.34" width="113.29" height="80.13"/><rect class="cls-2" x="178.68" y="118.04" width="33.16" height="117.43"/><path class="cls-2" d="M222.93,116.68,192.1,117l16-26.38h0a17.2,17.2,0,0,1,30,.18h0a17.2,17.2,0,0,1-15.17,25.93Z"/><path class="cls-2" d="M178.15,90.74,194,116.88l-30.57.06h0c-13.35.42-21.85-14-15.08-25.7h0c6.42-11.83,23.2-12.12,29.79-.5Z"/><path class="cls-3" d="M301.42,127.79s2.82,6.51,4.46,8.16,8.16,4.46,8.16,4.46-6.51,2.82-8.16,4.46-4.46,8.16-4.46,8.16-2.82-6.51-4.46-8.16-8.16-4.46-8.16-4.46,6.51-2.82,8.16-4.46S301.42,127.79,301.42,127.79Z"/><path class="cls-3" d="M275.94,69.33s2.82,6.52,4.46,8.16S288.56,82,288.56,82s-6.51,2.82-8.16,4.46-4.46,8.16-4.46,8.16-2.82-6.52-4.46-8.16S263.32,82,263.32,82s6.51-2.82,8.16-4.47S275.94,69.33,275.94,69.33Z"/><text class="cls-4" transform="translate(84.99 332.39) scale(1.01 1)">LAN<tspan class="cls-5" x="61.53" y="0">Ç</tspan><tspan x="87.46" y="0">AMEN</tspan><tspan class="cls-6" x="178.32" y="0">T</tspan><tspan x="194.42" y="0">O</tspan></text></g></g></g></svg>