<svg xmlns="http://www.w3.org/2000/svg" viewBox="0 0 73.13 112.1"><defs><style>.cls-1,.cls-2{fill:none;stroke:#c63b34;stroke-miterlimit:10;stroke-width:4px;}.cls-1{opacity:0.62;}</style></defs><title>localizacao</title><g id="Camada_2" data-name="Camada 2"><g id="Aplicativo_Mobile" data-name="Aplicativo Mobile"><g id="Orientacao_Pesquisa"><path class="cls-1" d="M71.13,97.3c0,7.07-15.47,12.8-34.56,12.8S2,104.37,2,97.3c0-4.85,7.29-9.07,18-11.25A84.6,84.6,0,0,1,36.57,84.5a81.66,81.66,0,0,1,18.69,2C64.81,88.81,71.13,92.78,71.13,97.3Z"/><path class="cls-2" d="M71.13,35.34C71.13,14.47,50.39,1.19,36.57,2,22.74,1.19,2,14.47,2,35.34,2,53.63,36.31,94.23,36.31,94.23S71.13,53.63,71.13,35.34Z"/><circle class="cls-2" cx="37.59" cy="32.52" r="12.55"/></g></g></g></svg>