<svg xmlns="http://www.w3.org/2000/svg" viewBox="0 0 395 403.9"><defs><style>.cls-1{fill:#1a1a1a;}.cls-2{fill:none;}.cls-2,.cls-3,.cls-4{stroke:#fff;stroke-miterlimit:10;}.cls-3,.cls-4{fill:#fff;}.cls-3{stroke-width:6px;}.cls-5{font-size:35px;fill:#f2f2f2;font-family:Qanelas-Medium, Qanelas;}.cls-6{letter-spacing:0em;}.cls-7{letter-spacing:-0.03em;}</style></defs><title>necessidade</title><g id="Camada_2" data-name="Camada 2"><g id="Aplicativo_Mobile" data-name="Aplicativo Mobile"><g id="Consumo_do_Lixo" data-name="Consumo do Lixo"><rect class="cls-1" x="26.57" width="346.08" height="383.37"/><path class="cls-2" d="M189.71,233.07a7.68,7.68,0,0,1,11.47-6.67l8.12-10.83H158.08V84.11h34.6l9.22-11.06h0l7.68-9.21H156.23a7.4,7.4,0,0,0-7.37,7.37V241.37a7.4,7.4,0,0,0,7.37,7.37h28.2L192,238.58A7.66,7.66,0,0,1,189.71,233.07Z"/><polygon class="cls-3" points="158.08 215.57 209.31 215.57 210.09 214.52 184.3 178.42 210.09 138.87 184.3 94.17 192.69 84.11 158.08 84.11 158.08 215.57"/><path class="cls-2" d="M248.12,63.79l-29,.06-7.66,9.23,9.62,0-9.62,0L202.3,84.15l44-.08.25,131.46-27.4.05-8.1,10.85a7.68,7.68,0,1,1-9.11,12.2l-7.6,10.17,54.12-.11a7.4,7.4,0,0,0,7.36-7.38L255.5,71.15A7.39,7.39,0,0,0,248.12,63.79Z"/><polygon class="cls-4" points="219.81 138.88 194.09 178.48 219.96 214.53 219.17 215.58 246.57 215.53 246.31 84.07 202.3 84.15 193.93 94.23 219.81 138.88"/><path class="cls-2" d="M207.31,240.79a7.68,7.68,0,0,0,3.76-14.36L202,238.63A7.65,7.65,0,0,0,207.31,240.79Z"/><text class="cls-5" transform="translate(84.69 338.4) scale(1.01 1)">N<tspan class="cls-6" x="22.22" y="0">E</tspan><tspan x="40.18" y="0">CESSI</tspan><tspan class="cls-7" x="131.88" y="0">D</tspan><tspan x="156.73" y="0">ADE</tspan></text></g></g></g></svg>