<svg xmlns="http://www.w3.org/2000/svg" viewBox="0 0 395 404.4"><defs><style>.cls-1{fill:#c63b34;stroke:#f2f2f2;}.cls-1,.cls-2,.cls-3,.cls-4{stroke-miterlimit:10;}.cls-2{fill:none;}.cls-2,.cls-3,.cls-4{stroke:#fff;}.cls-3,.cls-4{fill:#fff;}.cls-3{stroke-width:6px;}.cls-5{font-size:35px;fill:#f2f2f2;font-family:Qanelas-Medium, Qanelas;}.cls-6{letter-spacing:0em;}.cls-7{letter-spacing:-0.03em;}</style></defs><title>necessidade-active</title><g id="Camada_2" data-name="Camada 2"><g id="Aplicativo_Mobile" data-name="Aplicativo Mobile"><g id="Consumo_do_Lixo" data-name="Consumo do Lixo"><rect class="cls-1" x="26.57" y="0.5" width="346.08" height="383.37"/><path class="cls-2" d="M189.71,233.57a7.68,7.68,0,0,1,11.47-6.67l8.12-10.83H158.08V84.61h34.6l9.22-11.06h0l7.68-9.21H156.23a7.4,7.4,0,0,0-7.37,7.37V241.87a7.4,7.4,0,0,0,7.37,7.37h28.2L192,239.08A7.66,7.66,0,0,1,189.71,233.57Z"/><polygon class="cls-3" points="158.08 216.07 209.31 216.07 210.09 215.02 184.3 178.92 210.09 139.37 184.3 94.67 192.69 84.61 158.08 84.61 158.08 216.07"/><path class="cls-2" d="M248.12,64.29l-29,.06-7.66,9.23,9.62,0-9.62,0L202.3,84.65l44-.08L246.57,216l-27.4.05-8.1,10.85a7.68,7.68,0,1,1-9.11,12.2l-7.6,10.17,54.12-.11a7.4,7.4,0,0,0,7.36-7.38L255.5,71.65A7.39,7.39,0,0,0,248.12,64.29Z"/><polygon class="cls-4" points="219.81 139.38 194.09 178.98 219.96 215.03 219.17 216.08 246.57 216.03 246.31 84.57 202.3 84.65 193.93 94.73 219.81 139.38"/><path class="cls-2" d="M207.31,241.29a7.68,7.68,0,0,0,3.76-14.36L202,239.13A7.65,7.65,0,0,0,207.31,241.29Z"/><text class="cls-5" transform="translate(84.69 338.9) scale(1.01 1)">N<tspan class="cls-6" x="22.22" y="0">E</tspan><tspan x="40.18" y="0">CESSI</tspan><tspan class="cls-7" x="131.88" y="0">D</tspan><tspan x="156.73" y="0">ADE</tspan></text></g></g></g></svg>