<svg xmlns="http://www.w3.org/2000/svg" viewBox="0 0 802.13 462.85"><defs><style>.cls-1,.cls-3{fill:#1a1a1a;}.cls-1,.cls-3,.cls-4{stroke:#f2f2f2;}.cls-1,.cls-2,.cls-4{stroke-miterlimit:10;}.cls-1,.cls-2,.cls-3,.cls-4{stroke-width:4px;}.cls-2,.cls-4{fill:none;}.cls-2{stroke:#1a1a1a;}.cls-3{stroke-linecap:round;stroke-linejoin:round;}</style></defs><title>nivel5</title><g id="Camada_2" data-name="Camada 2"><g id="Aplicativo_Mobile" data-name="Aplicativo Mobile"><g id="Consumo_do_Lixo" data-name="Consumo do Lixo"><path class="cls-1" d="M733.22,385.56l-4.33-14.42A63.18,63.18,0,0,1,726.73,345c1.95-15.16,2.35-44.89-13.16-85.51-22.86-59.87-18.19-68-30.47-83.81-25.88-33.27-82.35-57.91-98.82-64.59a14.39,14.39,0,0,1-9.13-12.7c-.24-7.46,5.31-17.36,30.66-25,18.51-5.59,31.57-33.74,32.7-53.12,0-.13-25.2,2.35-41.4-3.48A24.27,24.27,0,0,1,588,10.84C577.66.34,561-1.09,549.4,8.08c-.43.34-.85.69-1.27,1.05-.43-.36-.85-.71-1.28-1.05-11.56-9.17-28.26-7.74-38.63,2.76a24.23,24.23,0,0,1-9.07,5.91c-16.21,5.83-41.42,3.35-41.41,3.48,1.13,19.38,14.19,47.53,32.7,53.12,25.35,7.67,30.9,17.57,30.67,25a14.39,14.39,0,0,1-9.14,12.7c-16.47,6.68-72.94,31.32-98.81,64.59-12.29,15.79-7.62,23.94-30.48,83.81-15.51,40.62-15.11,70.35-13.16,85.51a63.18,63.18,0,0,1-2.16,26.15L363,385.56c-1.41,4.71,1.37,7.72,6.15,6.56,4.6-1.11,4.74-2.38,14.59-7.47,19.24-9.93,49.7,13.51,82.72,21.77,40.1,10,81.64,6.53,81.64,6.53s41.54,3.5,81.63-6.53c33-8.26,63.48-31.7,82.72-21.77,9.86,5.09,10,6.36,14.59,7.47C731.85,393.28,734.63,390.27,733.22,385.56Z"/><rect class="cls-1" x="513.3" y="84.24" width="67.48" height="25.03" rx="11.5" ry="11.5"/><path class="cls-1" d="M537.31,88.06a9.93,9.93,0,0,1,0,17.2l-11.5,6.64L513.58,119a6.73,6.73,0,0,1-9.86-7.6l.28-1a53,53,0,0,0-.11-28.25h0a6.73,6.73,0,0,1,9.84-7.65l12.08,7Z"/><path class="cls-1" d="M558.51,105.35a9.92,9.92,0,0,1,0-17.2L570,81.52l12.24-7.07a6.73,6.73,0,0,1,9.85,7.6l-.27,1a52.92,52.92,0,0,0,.1,28.25h0a6.72,6.72,0,0,1-9.84,7.64L570,112Z"/><circle class="cls-1" cx="548.13" cy="96.21" r="8.71"/><rect class="cls-1" x="276.95" y="124.91" width="145.36" height="295.09"/><rect class="cls-1" x="267.66" y="118.36" width="163.94" height="31.69"/><rect class="cls-1" x="334.87" y="118.36" width="29.51" height="301.64"/><polygon class="cls-1" points="317.38 199.4 332.19 192.58 341.68 205.84 356.8 148.79 332.51 142.35 317.38 199.4"/><polygon class="cls-1" points="370.55 205.92 376.21 190.63 392.29 193.3 362.65 142.26 340.91 154.89 370.55 205.92"/><path class="cls-1" d="M372,171.62h0a7.35,7.35,0,0,0-10.11,5.72h0A7.36,7.36,0,0,1,348,179.66h0a7.36,7.36,0,0,0-11.43-2.11h0a7.36,7.36,0,0,1-12.07-7.11h0a7.36,7.36,0,0,0-7.39-9h0a7.36,7.36,0,0,1-4.69-13.2h0a7.36,7.36,0,0,0,.1-11.62h0a7.36,7.36,0,0,1,4.9-13.13h0A7.35,7.35,0,0,0,325,114.7h0a7.36,7.36,0,0,1,12.19-6.91h0a7.36,7.36,0,0,0,11.46-1.92h0a7.36,7.36,0,0,1,13.78,2.55h0a7.35,7.35,0,0,0,10,5.89h0a7.36,7.36,0,0,1,8.92,10.81h0a7.35,7.35,0,0,0,3.88,10.95h0a7.36,7.36,0,0,1-.12,14h0A7.35,7.35,0,0,0,381.05,161h0A7.37,7.37,0,0,1,372,171.62Z"/><rect class="cls-1" x="600.08" y="197.25" width="200.05" height="245.75"/><path class="cls-1" d="M729.28,197c0-48.32,13.77-131.12-20.15-133-24.54-1.36-38.28,48.22-38.28,133H652c0-70.26,16.12-146,57.48-145.13,51,1.07,37.7,100.55,37.7,145.13Z"/><polygon class="cls-1" points="267.83 432.96 2.1 432.96 16.39 144.38 254.97 144.38 267.83 432.96"/><path class="cls-2" d="M90.68,144.38V126.52c0-29.86,18.46-54.29,41-54.29h10.8c22.56,0,41,24.43,41,54.29v20.71"/><path class="cls-1" d="M381.13,425.13,367,224.33a8.26,8.26,0,0,0-8.23-7.67H203.61a8.26,8.26,0,0,0-8.22,7.61l-15.75,200.8a8.24,8.24,0,0,0,8.22,8.89h185A8.25,8.25,0,0,0,381.13,425.13Zm-85.44-163.3H263.3a14.49,14.49,0,0,1,0-29h32.39a14.49,14.49,0,0,1,0,29Z"/><polyline class="cls-3" points="535.13 263 360.13 263 360.13 300 535.13 300 535.13 263"/><rect class="cls-3" x="356.77" y="301" width="181.51" height="140.96"/><polygon class="cls-3" points="534.52 262.6 498.27 281.48 534.52 300.37 360.52 300.37 394.7 282.53 360.52 262.6 534.52 262.6"/><path class="cls-4" d="M420.77,327.6s-6.18-48.47,26.23-51.41c34.62-3.15,29.38,51.41,29.38,51.41"/><path class="cls-4" d="M424.72,260.7c1-14.46,6.22-34.08,26.47-35.92,20.83-1.9,27.06,20.76,28.86,36.19"/><polygon class="cls-3" points="395.13 300 395.13 283 362.13 300 395.13 300"/><polygon class="cls-3" points="498.13 282 533.13 300 498.13 300 498.13 282"/><path class="cls-1" d="M207.75,296.42,78.13,297,46,321.28V460.85H191.3l16.83-23.79ZM82.4,364.65A11.6,11.6,0,1,1,94,353.06,11.59,11.59,0,0,1,82.4,364.65Zm73.86,0a11.6,11.6,0,1,1,11.6-11.59A11.59,11.59,0,0,1,156.26,364.65Z"/><path class="cls-1" d="M82,353.06V302.81c0-17.95,13.68-32.63,31.64-32.63h8.58c18,0,33.64,14.68,33.64,32.63v50.25"/><path class="cls-1" d="M112,296.37l-1-16.75A32.73,32.73,0,0,1,143.67,247h8.59a32.72,32.72,0,0,1,32.63,32.63l1,16.75"/><line class="cls-1" x1="46.13" y1="321" x2="191.13" y2="321"/><line class="cls-1" x1="208.13" y1="296" x2="191.13" y2="321"/><line class="cls-1" x1="191.13" y1="461" x2="191.13" y2="321"/><line class="cls-1" x1="197.13" y1="312" x2="197.13" y2="434"/><line class="cls-1" x1="192.13" y1="459" x2="197.13" y2="434"/><line class="cls-1" x1="208.13" y1="437" x2="197.13" y2="434"/><polygon class="cls-1" points="482.88 343.44 471.75 456 590.5 456 579.37 343.44 482.88 343.44"/><path class="cls-4" d="M507,355.81c0-29.72,11.07-53.81,24.73-53.81s24.74,24.09,24.74,53.81"/></g></g></g></svg>