<svg xmlns="http://www.w3.org/2000/svg" viewBox="0 0 592.71 392.62"><defs><style>.cls-1,.cls-3{fill:#1a1a1a;}.cls-1,.cls-3,.cls-4{stroke:#f2f2f2;}.cls-1,.cls-2,.cls-4{stroke-miterlimit:10;}.cls-1,.cls-2,.cls-3,.cls-4{stroke-width:4px;}.cls-2,.cls-4{fill:none;}.cls-2{stroke:#1a1a1a;}.cls-3{stroke-linecap:round;stroke-linejoin:round;}</style></defs><title>nivel3</title><g id="Camada_2" data-name="Camada 2"><g id="Aplicativo_Mobile" data-name="Aplicativo Mobile"><g id="Consumo_do_Lixo" data-name="Consumo do Lixo"><rect class="cls-1" x="276.95" y="54.68" width="145.36" height="295.09"/><rect class="cls-1" x="267.66" y="48.13" width="163.94" height="31.69"/><rect class="cls-1" x="334.87" y="48.13" width="29.51" height="301.64"/><polygon class="cls-1" points="317.38 129.16 332.19 122.35 341.68 135.61 356.8 78.56 332.51 72.12 317.38 129.16"/><polygon class="cls-1" points="370.55 135.69 376.21 120.4 392.29 123.07 362.65 72.03 340.91 84.66 370.55 135.69"/><path class="cls-1" d="M372,101.39h0a7.35,7.35,0,0,0-10.11,5.72h0A7.36,7.36,0,0,1,348,109.43h0a7.36,7.36,0,0,0-11.43-2.11h0a7.36,7.36,0,0,1-12.07-7.11h0a7.36,7.36,0,0,0-7.39-9h0a7.36,7.36,0,0,1-4.69-13.2h0a7.36,7.36,0,0,0,.1-11.62h0a7.36,7.36,0,0,1,4.9-13.13h0A7.35,7.35,0,0,0,325,44.47h0a7.36,7.36,0,0,1,12.19-6.91h0a7.36,7.36,0,0,0,11.46-1.92h0a7.36,7.36,0,0,1,13.78,2.55h0a7.35,7.35,0,0,0,10,5.89h0a7.36,7.36,0,0,1,8.92,10.8h0a7.36,7.36,0,0,0,3.88,11h0a7.35,7.35,0,0,1-.12,14h0a7.36,7.36,0,0,0-4.06,10.89h0A7.37,7.37,0,0,1,372,101.39Z"/><polygon class="cls-1" points="267.83 362.73 2.1 362.73 16.39 74.15 254.97 74.15 267.83 362.73"/><path class="cls-2" d="M90.68,74.15V56.29c0-29.86,18.46-54.29,41-54.29h10.8c22.56,0,41,24.43,41,54.29V77"/><path class="cls-1" d="M381.13,354.9,367,154.1a8.26,8.26,0,0,0-8.23-7.67H203.61a8.26,8.26,0,0,0-8.22,7.61l-15.75,200.8a8.24,8.24,0,0,0,8.22,8.89h185A8.25,8.25,0,0,0,381.13,354.9ZM295.69,191.6H263.3a14.49,14.49,0,0,1,0-29h32.39a14.49,14.49,0,0,1,0,29Z"/><polyline class="cls-3" points="535.13 192.77 360.13 192.77 360.13 229.77 535.13 229.77 535.13 192.77"/><rect class="cls-3" x="356.77" y="230.77" width="181.51" height="140.96"/><polygon class="cls-3" points="534.52 192.37 498.27 211.25 534.52 230.14 360.52 230.14 394.7 212.3 360.52 192.37 534.52 192.37"/><path class="cls-4" d="M420.77,257.37S414.59,208.9,447,206c34.62-3.15,29.38,51.41,29.38,51.41"/><path class="cls-4" d="M424.72,190.47c1-14.46,6.22-34.08,26.47-35.93,20.83-1.89,27.06,20.77,28.86,36.2"/><polygon class="cls-3" points="395.13 229.77 395.13 212.77 362.13 229.77 395.13 229.77"/><polygon class="cls-3" points="498.13 211.77 533.13 229.77 498.13 229.77 498.13 211.77"/><path class="cls-1" d="M207.75,226.18l-129.62.59L46,251.05V390.62H191.3l16.83-23.79ZM82.4,294.42A11.6,11.6,0,1,1,94,282.83,11.59,11.59,0,0,1,82.4,294.42Zm73.86,0a11.6,11.6,0,1,1,11.6-11.59A11.59,11.59,0,0,1,156.26,294.42Z"/><path class="cls-1" d="M82,282.83V232.58c0-18,13.68-32.63,31.64-32.63h8.58c18,0,33.64,14.68,33.64,32.63v50.25"/><path class="cls-1" d="M112,226.14l-1-16.75a32.73,32.73,0,0,1,32.64-32.63h8.59a32.72,32.72,0,0,1,32.63,32.63l1,16.75"/><line class="cls-1" x1="46.13" y1="250.77" x2="191.13" y2="250.77"/><line class="cls-1" x1="208.13" y1="225.77" x2="191.13" y2="250.77"/><line class="cls-1" x1="191.13" y1="390.77" x2="191.13" y2="250.77"/><line class="cls-1" x1="197.13" y1="241.77" x2="197.13" y2="363.77"/><line class="cls-1" x1="192.13" y1="388.77" x2="197.13" y2="363.77"/><line class="cls-1" x1="208.13" y1="366.77" x2="197.13" y2="363.77"/><polygon class="cls-1" points="482.88 273.21 471.75 385.77 590.5 385.77 579.37 273.21 482.88 273.21"/><path class="cls-4" d="M507,285.58c0-29.72,11.07-53.81,24.73-53.81s24.74,24.09,24.74,53.81"/></g></g></g></svg>