<svg xmlns="http://www.w3.org/2000/svg" viewBox="0 0 269.92 392.62"><defs><style>.cls-1{fill:#1a1a1a;stroke:#f2f2f2;}.cls-1,.cls-2{stroke-miterlimit:10;stroke-width:4px;}.cls-2{fill:none;stroke:#1a1a1a;}</style></defs><title>nivel1</title><g id="Camada_2" data-name="Camada 2"><g id="Aplicativo_Mobile" data-name="Aplicativo Mobile"><g id="Consumo_do_Lixo" data-name="Consumo do Lixo"><polygon class="cls-1" points="267.83 362.73 2.1 362.73 16.39 74.15 254.97 74.15 267.83 362.73"/><path class="cls-2" d="M90.68,74.15V56.29c0-29.86,18.46-54.29,41-54.29h10.8c22.56,0,41,24.43,41,54.29V77"/><path class="cls-1" d="M207.75,226.18l-129.62.59L46,251.05V390.62H191.3l16.83-23.79ZM82.4,294.42A11.6,11.6,0,1,1,94,282.83,11.59,11.59,0,0,1,82.4,294.42Zm73.86,0a11.6,11.6,0,1,1,11.6-11.59A11.59,11.59,0,0,1,156.26,294.42Z"/><path class="cls-1" d="M82,282.83V232.58c0-18,13.68-32.63,31.64-32.63h8.58c18,0,33.64,14.68,33.64,32.63v50.25"/><path class="cls-1" d="M112,226.14l-1-16.75a32.73,32.73,0,0,1,32.64-32.63h8.59a32.72,32.72,0,0,1,32.63,32.63l1,16.75"/><line class="cls-1" x1="46.13" y1="250.77" x2="191.13" y2="250.77"/><line class="cls-1" x1="208.13" y1="225.77" x2="191.13" y2="250.77"/><line class="cls-1" x1="191.13" y1="390.77" x2="191.13" y2="250.77"/><line class="cls-1" x1="197.13" y1="241.77" x2="197.13" y2="363.77"/><line class="cls-1" x1="192.13" y1="388.77" x2="197.13" y2="363.77"/><line class="cls-1" x1="208.13" y1="366.77" x2="197.13" y2="363.77"/></g></g></g></svg>