<svg xmlns="http://www.w3.org/2000/svg" viewBox="0 0 399 388.39"><defs><style>.cls-1{fill:#1a1a1a;}.cls-2,.cls-4{fill:#c63b34;}.cls-2{stroke:#f2f2f2;}.cls-2,.cls-3{stroke-miterlimit:10;}.cls-3{fill:#fff;stroke:#c63b34;stroke-width:6px;}.cls-4{font-size:32.55px;font-family:Qanelas-Bold, Qanelas;font-weight:700;}.cls-5{font-size:35px;fill:#f2f2f2;font-family:Qanelas-Medium, Qanelas;}.cls-6{letter-spacing:-0.03em;}</style></defs><title>promocao-active</title><g id="Camada_2" data-name="Camada 2"><g id="Aplicativo_Mobile" data-name="Aplicativo Mobile"><g id="Consumo_do_Lixo" data-name="Consumo do Lixo"><circle class="cls-1" cx="189.75" cy="154.51" r="151.88"/><rect class="cls-2" x="26.96" y="0.5" width="346.08" height="383.37"/><path class="cls-3" d="M104.6,87.21l19.49,2.32a5.15,5.15,0,0,0,4.22-1.42l12.8-12.34a5.18,5.18,0,0,1,6.95-.23L163,88.13a5.16,5.16,0,0,0,4.56,1.08l14.83-3.55a5.19,5.19,0,0,1,6.32,4.15l3.1,17.73a5.24,5.24,0,0,0,2.64,3.67l16,8.69a5.2,5.2,0,0,1,2.26,6.67l-7.33,16.49a5.18,5.18,0,0,0,.08,4.37l7.22,14.92a5.18,5.18,0,0,1-1.79,6.58l-15.52,10.35a5.19,5.19,0,0,0-2.24,3.44l-3.24,19a5.17,5.17,0,0,1-6,4.24l-18.52-3.16a5.21,5.21,0,0,0-4.55,1.45l-12.38,12.38a5.17,5.17,0,0,1-7.33,0L127.54,203a5.22,5.22,0,0,0-4.69-1.42L105.5,205a5.17,5.17,0,0,1-6.17-4.53l-2-18.1a5.17,5.17,0,0,0-2.89-4.11l-16.3-7.93a5.2,5.2,0,0,1-2.32-7.1l7.79-14.71a5.16,5.16,0,0,0,.08-4.7l-8.11-16.68a5.2,5.2,0,0,1,2.4-6.94l15.31-7.44a5.17,5.17,0,0,0,2.87-3.87l2.66-17.35A5.2,5.2,0,0,1,104.6,87.21Z"/><circle class="cls-3" cx="125.9" cy="128.92" r="10.9"/><circle class="cls-3" cx="163.71" cy="162.25" r="10.9"/><line class="cls-3" x1="165.64" y1="118.03" x2="123.33" y2="173.15"/><polygon class="cls-3" points="160.02 177.19 211.56 228.74 299.93 140.38 291.86 97.25 246.98 88.83 160.02 177.19"/><circle class="cls-3" cx="275.38" cy="114.43" r="6.66"/><path class="cls-3" d="M265.21,51l7.17,12.29a10,10,0,0,1,.43,9.3l-5.64,12.09a10,10,0,0,0,0,8.4l4.79,10.54a11.12,11.12,0,0,1,.51,1.4l2.6,9.1"/><text class="cls-4" transform="matrix(0.71, -0.71, 0.71, 0.71, 215.54, 193.2)">S</text><text class="cls-4" transform="translate(227.86 180.88) rotate(-45)">A</text><text class="cls-4" transform="translate(242.9 165.85) rotate(-45)">L</text><text class="cls-4" transform="matrix(0.71, -0.71, 0.71, 0.71, 253.82, 154.92)">E</text><text></text><text class="cls-5" transform="translate(89.47 335.08) scale(1.01 1)">P<tspan class="cls-6" x="20.4" y="0">R</tspan><tspan x="41.37" y="0">OMOÇÕES </tspan></text></g></g></g></svg>