<svg xmlns="http://www.w3.org/2000/svg" viewBox="0 0 600 600"><defs><style>.cls-1{fill:#1a1a1a;}.cls-2{fill:#fff;}</style></defs><title>reciclar</title><g id="Camada_2" data-name="Camada 2"><g id="Aplicativo_Mobile" data-name="Aplicativo Mobile"><circle class="cls-1" cx="300" cy="300" r="300"/><path class="cls-2" d="M315.5,405.5l33-58v15h111l-42.38,75.55a12.62,12.62,0,0,1-11,6.45H351.5v20Z"/><path class="cls-2" d="M374.5,269.5l68-38,36.1,64.83a31.34,31.34,0,0,1-7.8,39.73l-13,10.41a4.65,4.65,0,0,1-2.93,1H420.27a4.7,4.7,0,0,1-4.11-2.43Z"/><polygon class="cls-2" points="143.5 364.5 285.5 364.5 285.5 444.5 188.5 444.5 143.5 364.5"/><path class="cls-2" d="M126.5,247.5l14,10-16.65,35.86A36.72,36.72,0,0,0,128,331.14l10.65,13.92a6.18,6.18,0,0,0,4.93,2.44h38.51a6.2,6.2,0,0,0,5.25-2.9l27.17-43.1,13,6-31-58Z"/><path class="cls-2" d="M175.5,199.5l69,42,45-77L278,142.89a38.06,38.06,0,0,0-38.73-19.81h0a38.06,38.06,0,0,0-27.19,17.62Z"/><polygon class="cls-2" points="286.5 119.5 376.5 119.5 410.5 171.5 425.5 164.5 392.5 223.5 323.5 223.5 338.5 210.5 286.5 119.5"/></g></g></svg>