<svg xmlns="http://www.w3.org/2000/svg" viewBox="0 0 905.36 357.76"><defs><style>.cls-1,.cls-10,.cls-2,.cls-9{fill:#1a1a1a;}.cls-2{font-size:34.59px;font-family:Qanelas-Medium, Qanelas;}.cls-3{letter-spacing:0em;}.cls-4{letter-spacing:-0.01em;}.cls-5{letter-spacing:0em;}.cls-6{letter-spacing:-0.03em;}.cls-7{letter-spacing:-0.03em;}.cls-8{letter-spacing:0em;}.cls-10,.cls-9{stroke:#1a1a1a;stroke-miterlimit:10;}.cls-9{stroke-width:2px;}.cls-11{font-size:124.83px;fill:#f2f2f2;font-family:Qanelas-Black, Qanelas;}</style></defs><title>s1</title><g id="Camada_2" data-name="Camada 2"><g id="Aplicativo_Mobile" data-name="Aplicativo Mobile"><g id="Orientacao_Pesquisa"><path class="cls-1" d="M0,148.21A148.21,148.21,0,1,0,148.21,0,148.2,148.2,0,0,0,0,148.21Z"/><text class="cls-2" transform="translate(0 349.18)">D<tspan class="cls-3" x="25.53" y="0">O</tspan><tspan x="53.03" y="0">S BR</tspan><tspan class="cls-4" x="126.16" y="0">A</tspan><tspan class="cls-5" x="147.85" y="0">SIELI</tspan><tspan class="cls-6" x="218.36" y="0">R</tspan><tspan class="cls-3" x="239.08" y="0">O</tspan><tspan class="cls-5" x="266.58" y="0">S</tspan></text><text class="cls-2" transform="translate(646.91 159.08)"><tspan class="cls-4">S</tspan><tspan class="cls-7" x="18.61" y="0">Ã</tspan><tspan x="39.71" y="0">O DON</tspan><tspan class="cls-8" x="151.21" y="0">O</tspan><tspan x="178.71" y="0">S DE </tspan></text><line class="cls-9" x1="389.6" y1="150.59" x2="492.39" y2="150.59"/><path class="cls-10" d="M501,139.42a1.15,1.15,0,0,0,.34,1.6l14.72,9.7-14.89,9.43a1.17,1.17,0,0,0-.37,1.6,1.16,1.16,0,0,0,1.59.38l16.42-10.41a1.17,1.17,0,0,0,0-2l-16.23-10.69a1.28,1.28,0,0,0-.62-.19A1.14,1.14,0,0,0,501,139.42Z"/><line class="cls-9" x1="775.31" y1="189.12" x2="775.31" y2="265.07"/><path class="cls-10" d="M786.49,271.41a1.42,1.42,0,0,0-1.61.25l-9.69,10.88-9.44-11a1.44,1.44,0,0,0-1.6-.27c-.54.25-.71.78-.37,1.17l10.4,12.13a1.28,1.28,0,0,0,1,.4,1.31,1.31,0,0,0,1-.38l10.68-12a.66.66,0,0,0,.19-.45A.82.82,0,0,0,786.49,271.41Z"/><text class="cls-11" transform="translate(54.54 197.4)">1/3</text></g></g></g></svg>