<svg xmlns="http://www.w3.org/2000/svg" viewBox="0 0 914.21 356.63"><defs><style>.cls-1,.cls-10,.cls-11{fill:none;}.cls-1{stroke:#212121;}.cls-1,.cls-10,.cls-11,.cls-7,.cls-8{stroke-miterlimit:10;}.cls-1,.cls-7{stroke-width:2px;}.cls-2{fill:#f2f2f2;}.cls-3{font-size:34.59px;font-family:Qanelas-Medium, Qanelas;}.cls-3,.cls-7,.cls-8,.cls-9{fill:#1a1a1a;}.cls-4{letter-spacing:-0.04em;}.cls-5{letter-spacing:-0.02em;}.cls-6{letter-spacing:-0.03em;}.cls-7,.cls-8{stroke:#1a1a1a;}.cls-10,.cls-11{stroke:#f8f8f8;}.cls-10{stroke-width:0.5px;}</style></defs><title>s2</title><g id="Camada_2" data-name="Camada 2"><g id="Aplicativo_Mobile" data-name="Aplicativo Mobile"><g id="Orientacao_Pesquisa"><line class="cls-1" x1="168.08" y1="257.9" x2="168.08" y2="334.3"/><path d="M179.32,340.67a1.46,1.46,0,0,0-1.62.25L168,351.87l-9.49-11.07a1.44,1.44,0,0,0-1.61-.27c-.55.25-.71.78-.37,1.17l10.46,12.21a1.36,1.36,0,0,0,1,.4,1.38,1.38,0,0,0,1-.39l10.75-12.07a.77.77,0,0,0,.19-.45A.84.84,0,0,0,179.32,340.67Z"/><path class="cls-2" d="M766,0a148.21,148.21,0,1,0,148.2,148.21A148.21,148.21,0,0,0,766,0Z"/><text class="cls-3" transform="translate(641.9 348.05)"><tspan xml:space="preserve"> SMA</tspan><tspan class="cls-4" x="77.56" y="0">R</tspan><tspan x="97.97" y="0">TPHONES</tspan></text><text class="cls-3" transform="translate(0 223.06)">E TEM A INTEN<tspan class="cls-5" x="216.56" y="0">Ç</tspan><tspan class="cls-6" x="242.19" y="0">Ã</tspan><tspan x="263.29" y="0">O DE</tspan></text><line class="cls-7" x1="520.32" y1="205.35" x2="417.52" y2="205.35"/><path class="cls-8" d="M408.94,194.18a1.16,1.16,0,0,1-.34,1.61l-14.72,9.69,14.89,9.43a1.18,1.18,0,0,1,.37,1.61,1.15,1.15,0,0,1-1.58.37l-16.42-10.41a1.13,1.13,0,0,1-.54-1,1.16,1.16,0,0,1,.52-1l16.23-10.69a1.2,1.2,0,0,1,.62-.18A1.11,1.11,0,0,1,408.94,194.18Z"/><path class="cls-9" d="M825,31.62H712.12a11.54,11.54,0,0,0-11.54,11.54V251.23a11.54,11.54,0,0,0,11.54,11.54H825a11.55,11.55,0,0,0,11.55-11.54V43.16A11.55,11.55,0,0,0,825,31.62Z"/><rect class="cls-10" x="743.3" y="43.05" width="50.52" height="3.7"/><path class="cls-11" d="M768.56,254.61a12.24,12.24,0,1,1,12.24-12.24A12.24,12.24,0,0,1,768.56,254.61Z"/><rect class="cls-11" x="714.18" y="58.81" width="108.78" height="163.16"/></g></g></g></svg>