<svg xmlns="http://www.w3.org/2000/svg" viewBox="0 0 900.65 687.62"><defs><style>.cls-1{fill:#f2f2f2;}.cls-2{font-size:34.59px;font-family:Qanelas-Medium, Qanelas;}.cls-2,.cls-6,.cls-7,.cls-8,.cls-9{fill:#1a1a1a;}.cls-3{letter-spacing:-0.03em;}.cls-4{letter-spacing:-0.02em;}.cls-5{letter-spacing:0em;}.cls-10,.cls-6,.cls-7{stroke:#1a1a1a;}.cls-10,.cls-6,.cls-7,.cls-8{stroke-miterlimit:10;}.cls-6{stroke-width:2px;}.cls-8{stroke:#f8f8f8;}.cls-10{fill:none;}</style></defs><title>s3</title><g id="Camada_2" data-name="Camada 2"><g id="Aplicativo_Mobile" data-name="Aplicativo Mobile"><g id="Orientacao_Pesquisa"><path class="cls-1" d="M604.24,470.77a148.21,148.21,0,1,0,148.2-148.2A148.2,148.2,0,0,0,604.24,470.77Z"/><path class="cls-1" d="M148.21,0a148.21,148.21,0,1,0,148.2,148.21A148.21,148.21,0,0,0,148.21,0Z"/><text class="cls-2" transform="translate(687.61 679.04)">UM ANO</text><text class="cls-2" transform="translate(90.28 363.4)">T<tspan class="cls-3" x="17.3" y="0">R</tspan><tspan x="38.02" y="0">O</tspan><tspan class="cls-4" x="65.69" y="0">C</tspan><tspan x="91.33" y="0">AR</tspan></text><text class="cls-2" transform="translate(642.07 139.21)">EM MEN<tspan class="cls-5" x="122.15" y="0">O</tspan><tspan x="149.65" y="0">S DE</tspan></text><line class="cls-6" x1="381.78" y1="127.5" x2="484.58" y2="127.5"/><path class="cls-7" d="M493.16,116.32a1.16,1.16,0,0,0,.34,1.61l14.72,9.69-14.89,9.44a1.17,1.17,0,0,0-.37,1.6,1.14,1.14,0,0,0,1.58.37L511,128.63a1.17,1.17,0,0,0,0-2L494.75,116a1.12,1.12,0,0,0-.62-.19A1.16,1.16,0,0,0,493.16,116.32Z"/><line class="cls-6" x1="748.77" y1="181.61" x2="748.77" y2="257.56"/><path class="cls-7" d="M760,263.89a1.46,1.46,0,0,0-1.61.25L748.64,275l-9.43-11a1.43,1.43,0,0,0-1.6-.27c-.55.25-.71.77-.37,1.17l10.4,12.13a1.28,1.28,0,0,0,1,.4,1.32,1.32,0,0,0,1-.39l10.69-12a.77.77,0,0,0,.19-.46A.84.84,0,0,0,760,263.89Z"/><rect class="cls-8" x="664.31" y="433.1" width="171.05" height="128.29"/><path class="cls-8" d="M843.62,407.13H660a4.52,4.52,0,0,0-4.5,4.5V563.75a4.51,4.51,0,0,0,4.5,4.5h183.6a4.5,4.5,0,0,0,4.49-4.5V411.63A4.51,4.51,0,0,0,843.62,407.13ZM831.44,552.7H668.82v-103H831.44Z"/><rect class="cls-8" x="798.84" y="376.59" width="20.23" height="47.59" rx="2.64" ry="2.64"/><rect class="cls-8" x="681.56" y="376.59" width="20.23" height="47.59" rx="2.64" ry="2.64"/><rect class="cls-8" x="693.37" y="464.65" width="29.23" height="29.23"/><rect class="cls-8" x="737.21" y="464.65" width="29.23" height="29.23"/><rect class="cls-8" x="693.37" y="507.74" width="29.23" height="29.23"/><rect class="cls-8" x="737.21" y="507.74" width="29.23" height="29.23"/><rect class="cls-8" x="779.97" y="507.74" width="29.23" height="29.23"/><rect class="cls-8" x="781.04" y="464.65" width="29.23" height="29.23"/><g id="Icone_SOQC" data-name="Icone SOQC"><rect class="cls-9" x="84.57" y="50.86" width="126.51" height="126.51"/><path class="cls-10" d="M186.71,52.1C182.6,31.51,167.27,16.22,149,16.22s-33.61,15.29-37.72,35.87h75.43Z"/></g><path class="cls-8" d="M233.15,224.79a15.23,15.23,0,0,0-12.93-2.46L179.29,231a21.55,21.55,0,0,1-2.53.43c-4.81.52-11.59,1-16.83,1h-34a4,4,0,0,1-4-4h0a5.8,5.8,0,0,1,5.78-5.79l36.06,0a11.21,11.21,0,0,0,6.46-2l.2-.14c6.39-4.44,6.28-10.87-.22-15.16l-.38-.25a9.78,9.78,0,0,0-5.4-1.62H83.06v54.28h82.1a168.1,168.1,0,0,0,44.61-6l20.33-5.37a10.35,10.35,0,0,0,1-.34C240.16,242.68,241,230.36,233.15,224.79Z"/><rect class="cls-8" x="57.11" y="193.73" width="25.95" height="73.85" rx="3.61" ry="3.61"/></g></g></g></svg>