<svg xmlns="http://www.w3.org/2000/svg" viewBox="0 0 353.51 384.37"><defs><style>.cls-1{fill:#c63b34;stroke:#f2f2f2;}.cls-1,.cls-7,.cls-8,.cls-9{stroke-miterlimit:10;}.cls-2{font-size:30.36px;font-family:Qanelas-Medium, Qanelas;}.cls-2,.cls-7,.cls-8,.cls-9{fill:#f2f2f2;}.cls-3{letter-spacing:0em;}.cls-4{letter-spacing:-0.03em;}.cls-5{letter-spacing:-0.03em;}.cls-6{letter-spacing:-0.06em;}.cls-7,.cls-8,.cls-9{stroke:#646464;}.cls-7{stroke-width:3px;}.cls-9{stroke-width:2px;}</style></defs><title>sc1-active</title><g id="Camada_2" data-name="Camada 2"><g id="Aplicativo_Mobile" data-name="Aplicativo Mobile"><g id="Consumo_do_Lixo" data-name="Consumo do Lixo"><rect class="cls-1" x="0.5" y="0.5" width="346.08" height="383.37"/><text class="cls-2" transform="translate(73.19 292.37) scale(1.01 1)"><tspan class="cls-3">P</tspan><tspan x="17.55" y="0">UBLICI</tspan><tspan class="cls-4" x="109.74" y="0">D</tspan><tspan x="131.3" y="0">ADE E </tspan><tspan x="6.97" y="43.37">P</tspan><tspan class="cls-5" x="24.67" y="43.37">R</tspan><tspan x="42.85" y="43.37">O</tspan><tspan class="cls-6" x="67.13" y="43.37">P</tspan><tspan class="cls-4" x="83.01" y="43.37">A</tspan><tspan x="101.53" y="43.37">GAN</tspan><tspan class="cls-4" x="164.22" y="43.37">D</tspan><tspan x="185.77" y="43.37">A </tspan></text><rect class="cls-7" x="120.18" y="126.95" width="26.78" height="96.41" rx="12" ry="12" transform="translate(-45.81 47.31) rotate(-17.19)"/><path class="cls-8" d="M206.08,49.82,120.83,64.59A39.36,39.36,0,0,0,93.69,83.33l-.8,1.35a39.33,39.33,0,0,0,1.18,41.93h0a39.28,39.28,0,0,0,24.47,16.58l87.54,18.7a3.84,3.84,0,0,0,3.83-3.83V53.65A3.84,3.84,0,0,0,206.08,49.82Z"/><rect class="cls-7" x="199.37" y="40.24" width="17.24" height="135.39" rx="8.62" ry="8.62"/><line class="cls-9" x1="239.23" y1="108.26" x2="282.22" y2="108.26"/><line class="cls-9" x1="239.11" y1="89.54" x2="268.75" y2="59.89"/><line class="cls-9" x1="239.11" y1="126.89" x2="268.75" y2="156.54"/></g></g></g></svg>