<svg xmlns="http://www.w3.org/2000/svg" viewBox="0 0 353.01 383.37"><defs><style>.cls-1{fill:#1a1a1a;}.cls-2{font-size:30.36px;font-family:Qanelas-Medium, Qanelas;}.cls-2,.cls-7,.cls-8,.cls-9{fill:#f2f2f2;}.cls-3{letter-spacing:0em;}.cls-4{letter-spacing:-0.03em;}.cls-5{letter-spacing:-0.03em;}.cls-6{letter-spacing:-0.06em;}.cls-7{stroke:#1a1a1a;stroke-width:3px;}.cls-7,.cls-9{stroke-miterlimit:10;}.cls-9{stroke:#f2f2f2;stroke-width:2px;}</style></defs><title>sc1</title><g id="Camada_2" data-name="Camada 2"><g id="Aplicativo_Mobile" data-name="Aplicativo Mobile"><g id="Consumo_do_Lixo" data-name="Consumo do Lixo"><rect class="cls-1" width="346.08" height="383.37"/><text class="cls-2" transform="translate(72.69 291.87) scale(1.01 1)"><tspan class="cls-3">P</tspan><tspan x="17.55" y="0">UBLICI</tspan><tspan class="cls-4" x="109.74" y="0">D</tspan><tspan x="131.3" y="0">ADE E </tspan><tspan x="6.97" y="43.37">P</tspan><tspan class="cls-5" x="24.67" y="43.37">R</tspan><tspan x="42.85" y="43.37">O</tspan><tspan class="cls-6" x="67.13" y="43.37">P</tspan><tspan class="cls-4" x="83.01" y="43.37">A</tspan><tspan x="101.53" y="43.37">GAN</tspan><tspan class="cls-4" x="164.22" y="43.37">D</tspan><tspan x="185.77" y="43.37">A </tspan></text><rect class="cls-7" x="119.68" y="126.45" width="26.78" height="96.41" rx="12" ry="12" transform="translate(-45.68 47.14) rotate(-17.19)"/><path class="cls-8" d="M205.58,49.32,120.33,64.09A39.36,39.36,0,0,0,93.19,82.83l-.8,1.35a39.33,39.33,0,0,0,1.18,41.93h0A39.28,39.28,0,0,0,118,142.69l87.54,18.7a3.84,3.84,0,0,0,3.83-3.83V53.15A3.84,3.84,0,0,0,205.58,49.32Z"/><rect class="cls-7" x="198.87" y="39.74" width="17.24" height="135.39" rx="8.62" ry="8.62"/><line class="cls-9" x1="238.73" y1="107.76" x2="281.72" y2="107.76"/><line class="cls-9" x1="238.61" y1="89.04" x2="268.25" y2="59.39"/><line class="cls-9" x1="238.61" y1="126.39" x2="268.25" y2="156.04"/></g></g></g></svg>