<svg xmlns="http://www.w3.org/2000/svg" viewBox="0 0 347.08 384.37"><defs><style>.cls-1{fill:#bcbcbc;}.cls-13,.cls-2{fill:#c63b34;}.cls-2{stroke:#f2f2f2;}.cls-10,.cls-11,.cls-12,.cls-2,.cls-9{stroke-miterlimit:10;}.cls-3{font-size:30.36px;font-family:Qanelas-Medium, Qanelas;}.cls-10,.cls-11,.cls-3,.cls-9{fill:#f2f2f2;}.cls-4{letter-spacing:0em;}.cls-5{letter-spacing:-0.05em;}.cls-6{letter-spacing:-0.05em;}.cls-7{letter-spacing:-0.03em;}.cls-8{letter-spacing:-0.04em;}.cls-10,.cls-11,.cls-12,.cls-9{stroke:#c63b34;}.cls-9{stroke-width:3px;}.cls-10,.cls-12{stroke-width:6px;}.cls-11{stroke-width:2px;}.cls-12{fill:none;}.cls-13{font-size:32.07px;font-family:Qanelas-Bold, Qanelas;font-weight:700;}</style></defs><title>sc2-active</title><g id="Camada_2" data-name="Camada 2"><g id="Aplicativo_Mobile" data-name="Aplicativo Mobile"><g id="Consumo_do_Lixo" data-name="Consumo do Lixo"><rect class="cls-1" x="0.5" y="163.56" width="311.38" height="65.92"/><rect class="cls-2" x="0.5" y="0.5" width="346.08" height="383.37"/><text class="cls-3" transform="translate(39.81 292.45) scale(1.01 1)">PR<tspan class="cls-4" x="36.82" y="0">E</tspan><tspan x="52.4" y="0">ÇO </tspan><tspan class="cls-5" x="107.37" y="0">A</tspan><tspan x="125.19" y="0">TR</tspan><tspan class="cls-6" x="159.5" y="0">A</tspan><tspan x="177.32" y="0">TI</tspan><tspan class="cls-7" x="199.87" y="0">V</tspan><tspan x="217.63" y="0">O E </tspan><tspan x="44.58" y="43.37">DE</tspan><tspan class="cls-4" x="82.71" y="43.37">S</tspan><tspan x="99.22" y="43.37">CON</tspan><tspan class="cls-8" x="165.89" y="43.37">T</tspan><tspan class="cls-4" x="179.85" y="43.37">O</tspan><tspan x="203.98" y="43.37">S</tspan></text><path class="cls-9" d="M91.86,83.13l19.21,2.28A5.12,5.12,0,0,0,115.22,84l12.62-12.17a5.1,5.1,0,0,1,6.84-.22L149.39,84a5.09,5.09,0,0,0,4.48,1.07l14.62-3.5a5.1,5.1,0,0,1,6.22,4.09l3.06,17.47a5.15,5.15,0,0,0,2.6,3.61l15.78,8.56a5.12,5.12,0,0,1,2.23,6.57l-7.22,16.25a5.09,5.09,0,0,0,.07,4.3l7.12,14.69a5.1,5.1,0,0,1-1.76,6.48l-15.3,10.2a5.13,5.13,0,0,0-2.2,3.39l-3.19,18.68a5.11,5.11,0,0,1-5.9,4.18L151.76,197a5.12,5.12,0,0,0-4.48,1.42l-12.19,12.2a5.12,5.12,0,0,1-7.23,0l-13.39-13.4a5.13,5.13,0,0,0-4.62-1.4L92.76,199.2a5.11,5.11,0,0,1-6.09-4.46l-1.93-17.83a5.13,5.13,0,0,0-2.85-4L65.83,165a5.1,5.1,0,0,1-2.28-7l7.67-14.5a5.11,5.11,0,0,0,.08-4.63l-8-16.43a5.1,5.1,0,0,1,2.36-6.83l15.09-7.33a5.13,5.13,0,0,0,2.82-3.82l2.63-17.1A5.1,5.1,0,0,1,91.86,83.13Z"/><circle class="cls-10" cx="112.85" cy="124.21" r="10.73"/><circle class="cls-10" cx="150.1" cy="157.05" r="10.73"/><line class="cls-10" x1="151.99" y1="113.48" x2="110.32" y2="167.78"/><polygon class="cls-11" points="146.46 171.77 197.24 222.54 284.28 135.5 276.34 93.01 232.13 84.72 146.46 171.77"/><circle class="cls-10" cx="260.1" cy="109.94" r="6.56"/><path class="cls-12" d="M250.09,47.42l7.06,12.11a9.9,9.9,0,0,1,.42,9.16L252,80.6a9.91,9.91,0,0,0,0,8.27l4.72,10.38a11.43,11.43,0,0,1,.51,1.38l2.56,9"/><text class="cls-13" transform="translate(201.14 187.55) rotate(-45)">S</text><text class="cls-13" transform="translate(213.29 175.4) rotate(-45)">A</text><text class="cls-13" transform="translate(228.11 160.59) rotate(-45)">L</text><text class="cls-13" transform="matrix(0.71, -0.71, 0.71, 0.71, 238.86, 149.83)">E</text></g></g></g></svg>