<svg xmlns="http://www.w3.org/2000/svg" viewBox="0 0 346.51 383.37"><defs><style>.cls-1{fill:#bcbcbc;}.cls-13,.cls-2{fill:#1a1a1a;}.cls-3{font-size:30.36px;font-family:Qanelas-Medium, Qanelas;}.cls-10,.cls-11,.cls-3,.cls-9{fill:#f2f2f2;}.cls-4{letter-spacing:0em;}.cls-5{letter-spacing:-0.05em;}.cls-6{letter-spacing:-0.05em;}.cls-7{letter-spacing:-0.03em;}.cls-8{letter-spacing:-0.04em;}.cls-10,.cls-11,.cls-13,.cls-9{stroke:#1a1a1a;}.cls-10,.cls-11,.cls-12,.cls-13,.cls-9{stroke-miterlimit:10;}.cls-9{stroke-width:3px;}.cls-10,.cls-12{stroke-width:6px;}.cls-11{stroke-width:2px;}.cls-12{fill:none;stroke:#666;}.cls-13{font-size:32.07px;font-family:Qanelas-Bold, Qanelas;font-weight:700;}</style></defs><title>sc2</title><g id="Camada_2" data-name="Camada 2"><g id="Aplicativo_Mobile" data-name="Aplicativo Mobile"><g id="Consumo_do_Lixo" data-name="Consumo do Lixo"><rect class="cls-1" y="163.06" width="311.38" height="65.92"/><rect class="cls-2" width="346.08" height="383.37"/><text class="cls-3" transform="translate(39.31 291.95) scale(1.01 1)">PR<tspan class="cls-4" x="36.82" y="0">E</tspan><tspan x="52.4" y="0">ÇO </tspan><tspan class="cls-5" x="107.37" y="0">A</tspan><tspan x="125.19" y="0">TR</tspan><tspan class="cls-6" x="159.5" y="0">A</tspan><tspan x="177.32" y="0">TI</tspan><tspan class="cls-7" x="199.87" y="0">V</tspan><tspan x="217.63" y="0">O E </tspan><tspan x="44.58" y="43.37">DE</tspan><tspan class="cls-4" x="82.71" y="43.37">S</tspan><tspan x="99.22" y="43.37">CON</tspan><tspan class="cls-8" x="165.89" y="43.37">T</tspan><tspan class="cls-4" x="179.85" y="43.37">O</tspan><tspan x="203.98" y="43.37">S</tspan></text><path class="cls-9" d="M91.36,82.63l19.21,2.28a5.12,5.12,0,0,0,4.15-1.39l12.62-12.17a5.1,5.1,0,0,1,6.84-.22l14.71,12.4a5.09,5.09,0,0,0,4.48,1.07L168,81.1a5.1,5.1,0,0,1,6.22,4.09l3.06,17.47a5.15,5.15,0,0,0,2.6,3.61l15.78,8.56a5.12,5.12,0,0,1,2.23,6.57l-7.22,16.25a5.09,5.09,0,0,0,.07,4.3l7.12,14.69a5.1,5.1,0,0,1-1.76,6.48l-15.3,10.2a5.13,5.13,0,0,0-2.2,3.39l-3.19,18.68a5.11,5.11,0,0,1-5.9,4.18l-18.24-3.11a5.12,5.12,0,0,0-4.48,1.42l-12.19,12.2a5.12,5.12,0,0,1-7.23,0L114,196.68a5.13,5.13,0,0,0-4.62-1.4L92.26,198.7a5.11,5.11,0,0,1-6.09-4.46l-1.93-17.83a5.13,5.13,0,0,0-2.85-4l-16.06-7.82a5.1,5.1,0,0,1-2.28-7l7.67-14.5a5.11,5.11,0,0,0,.08-4.63l-8-16.43a5.1,5.1,0,0,1,2.36-6.83l15.09-7.33A5.13,5.13,0,0,0,83.08,104l2.63-17.1A5.1,5.1,0,0,1,91.36,82.63Z"/><circle class="cls-10" cx="112.35" cy="123.71" r="10.73"/><circle class="cls-10" cx="149.6" cy="156.55" r="10.73"/><line class="cls-10" x1="151.49" y1="112.98" x2="109.82" y2="167.28"/><polygon class="cls-11" points="145.96 171.27 196.74 222.04 283.78 135 275.84 92.51 231.63 84.22 145.96 171.27"/><circle class="cls-10" cx="259.6" cy="109.44" r="6.56"/><path class="cls-12" d="M249.59,46.92,256.65,59a9.9,9.9,0,0,1,.42,9.16L251.51,80.1a9.91,9.91,0,0,0,0,8.27l4.72,10.38a11.43,11.43,0,0,1,.51,1.38l2.56,9"/><text class="cls-13" transform="translate(200.64 187.05) rotate(-45)">S</text><text class="cls-13" transform="translate(212.79 174.9) rotate(-45)">A</text><text class="cls-13" transform="translate(227.61 160.09) rotate(-45)">L</text><text class="cls-13" transform="matrix(0.71, -0.71, 0.71, 0.71, 238.36, 149.33)">E</text></g></g></g></svg>