<svg xmlns="http://www.w3.org/2000/svg" viewBox="0 0 347.44 384.37"><defs><style>.cls-1,.cls-6,.cls-7{fill:#c63b34;}.cls-1{stroke:#f2f2f2;}.cls-1,.cls-7{stroke-miterlimit:10;}.cls-2{font-size:30.36px;font-family:Qanelas-Medium, Qanelas;}.cls-2,.cls-5{fill:#f2f2f2;}.cls-3{letter-spacing:-0.01em;}.cls-4{letter-spacing:0em;}.cls-7{stroke:#fff;}</style></defs><title>sc3-activee</title><g id="Camada_2" data-name="Camada 2"><g id="Aplicativo_Mobile" data-name="Aplicativo Mobile"><g id="Consumo_do_Lixo" data-name="Consumo do Lixo"><rect class="cls-1" x="0.5" y="0.5" width="346.08" height="383.37"/><text class="cls-2" transform="translate(25.18 320.99) scale(1.01 1)">INF<tspan class="cls-3" x="41.77" y="0">L</tspan><tspan x="56.16" y="0">UÊNCI</tspan><tspan class="cls-3" x="140.46" y="0">A</tspan><tspan x="159.5" y="0">S </tspan><tspan class="cls-4" x="183.75" y="0">S</tspan><tspan x="200.27" y="0">OCIAIS</tspan></text><path class="cls-5" d="M157,201.49a48.82,48.82,0,1,1-48.82-48.81A48.81,48.81,0,0,1,157,201.49Z"/><path class="cls-6" d="M121.27,180.53c-10.77,0-13.07,10.38-13.07,10.38s-2.31-10.38-13.08-10.38S80.89,191.3,84,199.37s19.23,20.39,24.24,23.08c5-2.69,21.15-15,24.22-23.08S132,180.53,121.27,180.53Z"/><path class="cls-5" d="M280.07,200.64A49.65,49.65,0,1,1,230.42,151,49.64,49.64,0,0,1,280.07,200.64Z"/><path class="cls-5" d="M247,210.61c10,0,18.18-6.89,18.21-15.49a14.33,14.33,0,0,0-4.58-10.36l3.85-7.47-7.11,5a20.07,20.07,0,0,0-10.25-2.77c-10,0-18.18,6.89-18.21,15.49S236.93,210.58,247,210.61Z"/><path class="cls-1" d="M221.07,184.5c-12.85-.05-23.31,8.84-23.35,19.86a18.33,18.33,0,0,0,5.87,13.28l-4.94,9.59,9.12-6.38a26,26,0,0,0,13.15,3.55c12.85,0,23.31-8.85,23.35-19.87S233.93,184.55,221.07,184.5Z"/><path class="cls-1" d="M212.82,206.05a2.66,2.66,0,1,1-2.64-2.66A2.64,2.64,0,0,1,212.82,206.05Z"/><path class="cls-1" d="M234.46,206.13a2.66,2.66,0,1,1-2.64-2.66A2.65,2.65,0,0,1,234.46,206.13Z"/><path class="cls-1" d="M223.64,206.09a2.65,2.65,0,1,1-2.64-2.66A2.65,2.65,0,0,1,223.64,206.09Z"/><path class="cls-5" d="M223.18,94.58a49.43,49.43,0,1,1-49.43-49.42A49.43,49.43,0,0,1,223.18,94.58Z"/><path class="cls-6" d="M200.29,95.66C204.72,92.11,203.3,83,196,83H182.41a29.67,29.67,0,0,0,1.93-11.69c-.32-9-14.35-9-14,0,.28,7.6-3.64,12.91-10.23,16.38a6,6,0,0,0-3.45,6.41,7.82,7.82,0,0,0-1.5,2.08,7.13,7.13,0,0,0-.85,9.14,6.76,6.76,0,0,0,.15.9c-2.9,4.06-1.08,11.37,5.44,11.37H196c6.7,0,8.43-7.7,5.2-11.69C203.61,103,203.29,98.06,200.29,95.66Z"/><path class="cls-7" d="M147.25,89.23v28.29c0,9,14,9,14,0V89.23C161.28,80.19,147.25,80.19,147.25,89.23Z"/></g></g></g></svg>