<svg xmlns="http://www.w3.org/2000/svg" viewBox="0 0 346.94 383.37"><defs><style>.cls-1,.cls-6{fill:#1a1a1a;}.cls-2{font-size:30.36px;font-family:Qanelas-Medium, Qanelas;}.cls-2,.cls-5{fill:#f2f2f2;}.cls-3{letter-spacing:-0.01em;}.cls-4{letter-spacing:0em;}.cls-6{stroke:#fff;stroke-miterlimit:10;}</style></defs><title>sc3</title><g id="Camada_2" data-name="Camada 2"><g id="Aplicativo_Mobile" data-name="Aplicativo Mobile"><g id="Consumo_do_Lixo" data-name="Consumo do Lixo"><rect class="cls-1" width="346.08" height="383.37"/><text class="cls-2" transform="translate(24.68 320.49) scale(1.01 1)">INF<tspan class="cls-3" x="41.77" y="0">L</tspan><tspan x="56.16" y="0">UÊNCI</tspan><tspan class="cls-3" x="140.46" y="0">A</tspan><tspan x="159.5" y="0">S </tspan><tspan class="cls-4" x="183.75" y="0">S</tspan><tspan x="200.27" y="0">OCIAIS</tspan></text><path class="cls-5" d="M156.51,201a48.82,48.82,0,1,1-48.82-48.81A48.81,48.81,0,0,1,156.51,201Z"/><path class="cls-1" d="M120.77,180c-10.77,0-13.07,10.38-13.07,10.38S105.39,180,94.62,180,80.39,190.8,83.46,198.87,102.69,219.26,107.7,222c5-2.69,21.15-15,24.22-23.08S131.54,180,120.77,180Z"/><path class="cls-5" d="M279.57,200.14a49.65,49.65,0,1,1-49.65-49.63A49.64,49.64,0,0,1,279.57,200.14Z"/><path class="cls-1" d="M246.46,210.11c10,0,18.18-6.89,18.21-15.49a14.33,14.33,0,0,0-4.58-10.36l3.85-7.47-7.11,5A20.07,20.07,0,0,0,246.58,179c-10,0-18.18,6.89-18.21,15.49S236.43,210.08,246.46,210.11Z"/><path class="cls-6" d="M220.57,184c-12.85-.05-23.31,8.84-23.35,19.86a18.33,18.33,0,0,0,5.87,13.28l-4.94,9.59,9.12-6.38a26,26,0,0,0,13.15,3.55c12.85,0,23.31-8.85,23.35-19.87S233.43,184.05,220.57,184Z"/><path class="cls-6" d="M212.32,205.55a2.66,2.66,0,1,1-2.64-2.66A2.64,2.64,0,0,1,212.32,205.55Z"/><path class="cls-6" d="M234,205.63a2.66,2.66,0,1,1-2.64-2.66A2.65,2.65,0,0,1,234,205.63Z"/><path class="cls-6" d="M223.14,205.59a2.65,2.65,0,1,1-2.64-2.66A2.65,2.65,0,0,1,223.14,205.59Z"/><path class="cls-5" d="M222.68,94.08a49.43,49.43,0,1,1-49.43-49.42A49.43,49.43,0,0,1,222.68,94.08Z"/><path class="cls-1" d="M199.79,95.16c4.43-3.55,3-12.62-4.26-12.62H181.91a29.67,29.67,0,0,0,1.93-11.69c-.32-9-14.35-9-14,0,.28,7.6-3.64,12.91-10.23,16.38a6,6,0,0,0-3.45,6.41,7.82,7.82,0,0,0-1.5,2.08,7.13,7.13,0,0,0-.85,9.14,6.76,6.76,0,0,0,.15.9c-2.9,4.06-1.08,11.37,5.44,11.37h36.16c6.7,0,8.43-7.7,5.2-11.69C203.11,102.51,202.79,97.56,199.79,95.16Z"/><path class="cls-6" d="M146.75,88.73V117c0,9,14,9,14,0V88.73C160.78,79.69,146.75,79.69,146.75,88.73Z"/></g></g></g></svg>