<svg xmlns="http://www.w3.org/2000/svg" viewBox="0 0 180.94 238.35"><defs><style>.cls-1,.cls-2{fill:#1a1a1a;}.cls-1{stroke:#fff;stroke-miterlimit:10;stroke-width:0.75px;}</style></defs><title>seismeses</title><g id="Camada_2" data-name="Camada 2"><g id="Camada_1-2" data-name="Camada 1"><path class="cls-1" d="M172.41,221.67h-14v-25c0-25.33-13.9-48.62-39.15-65.58-3.13-2.1-5.09-6.65-5.09-11.87s2-9.78,5.1-11.89c25.24-17,39.14-40.24,39.14-65.57v-25h14a8.15,8.15,0,1,0,0-16.3H8.53a8.15,8.15,0,0,0,0,16.3h14v25c0,25.33,13.9,48.62,39.14,65.57,3.14,2.11,5.1,6.66,5.1,11.89s-2,9.77-5.1,11.88C36.4,148,22.5,171.3,22.5,196.63v25h-14a8.16,8.16,0,0,0,0,16.31H172.41a8.16,8.16,0,0,0,0-16.31Zm-133.61-25c0-26.62,20-44,31.93-52C78.44,139.42,83,129.92,83,119.18s-4.6-20.25-12.31-25.42c-11.92-8-31.93-25.42-31.93-52v-25H142.14v25c0,26.62-20,44-31.93,52-7.71,5.18-12.31,14.68-12.31,25.43s4.6,20.24,12.31,25.41c11.92,8,31.93,25.42,31.93,52v25H38.8Z"/><path class="cls-2" d="M63.13,41.62h54.69a6.53,6.53,0,0,1,5.56,9.94l-32.7,53.36L57.58,51.59A6.52,6.52,0,0,1,63.13,41.62Z"/><path class="cls-2" d="M90.71,177l18.06,27.45a3.69,3.69,0,0,1-3.08,5.71H73.19a2.46,2.46,0,0,1-2-3.82Z"/></g></g></svg>