<svg xmlns="http://www.w3.org/2000/svg" viewBox="0 0 180.19 237.6"><defs><style>.cls-1{fill:#1a1a1a;}</style></defs><title>tresmeses</title><g id="Camada_2" data-name="Camada 2"><g id="Camada_1-2" data-name="Camada 1"><path class="cls-1" d="M172,221.3h-14V196.25c0-25.33-13.91-48.62-39.15-65.57-3.14-2.11-5.09-6.66-5.09-11.88s2-9.77,5.09-11.88c25.24-17,39.15-40.24,39.15-65.58v-25h14A8.15,8.15,0,1,0,172,0H8.15a8.15,8.15,0,0,0,0,16.3h14V41.35C22.12,66.68,36,90,61.27,106.92c3.14,2.11,5.09,6.66,5.09,11.88s-2,9.77-5.09,11.88C36,147.63,22.12,170.92,22.12,196.25V221.3h-14a8.15,8.15,0,1,0,0,16.3H172a8.15,8.15,0,1,0,0-16.3ZM38.43,196.25c0-26.62,20-44,31.93-52,7.71-5.17,12.31-14.68,12.31-25.42s-4.6-20.25-12.31-25.42c-11.93-8-31.93-25.41-31.93-52v-25H141.76V41.35c0,26.62-20,44-31.93,52-7.71,5.17-12.31,14.68-12.31,25.42s4.6,20.25,12.31,25.42c11.93,8,31.93,25.41,31.93,52V221.3H38.43Z"/><path class="cls-1" d="M66.32,49.5h47.55a5.68,5.68,0,0,1,4.85,8.64l-28.44,46.4L61.49,58.17A5.68,5.68,0,0,1,66.32,49.5Z"/><path class="cls-1" d="M90.65,160.49l26.83,40.78a5.47,5.47,0,0,1-4.57,8.48H64.63a3.65,3.65,0,0,1-3-5.67Z"/></g></g></svg>