<svg xmlns="http://www.w3.org/2000/svg" viewBox="0 0 600 600"><defs><style>.cls-1{fill:#1a1a1a;}.cls-2,.cls-4{fill:#fff;}.cls-3{fill:none;stroke:#fff;}.cls-3,.cls-4{stroke-linecap:round;stroke-linejoin:round;stroke-width:5px;}.cls-4{stroke:#1a1a1a;}</style></defs><title>trocar</title><g id="Camada_2" data-name="Camada 2"><g id="Aplicativo_Mobile" data-name="Aplicativo Mobile"><circle class="cls-1" cx="300" cy="300" r="300"/><g id="Icone_SOQC" data-name="Icone SOQC"><rect class="cls-2" x="197.22" y="152.08" width="205.55" height="205.55"/><path class="cls-3" d="M363.19,154.08c-6.69-33.45-31.59-58.29-61.28-58.29s-54.6,24.84-61.29,58.29H363.19Z"/></g><path class="cls-2" d="M438.65,434.68a24.72,24.72,0,0,0-21-4l-66.51,14.09a38.07,38.07,0,0,1-4.12.69c-7.81.85-18.82,1.69-27.34,1.69H264.36a6.51,6.51,0,0,1-6.51-6.5h0a9.43,9.43,0,0,1,9.41-9.41c10.19,0,50.13,0,58.59.05A18.25,18.25,0,0,0,336.33,428l.33-.23c10.39-7.21,10.21-17.66-.35-24.62l-.61-.41a16,16,0,0,0-8.78-2.64H194.77v88.21H328.18a273.46,273.46,0,0,0,72.47-9.79l33-8.73c.58-.16,1.13-.35,1.66-.55C450,463.74,451.46,443.73,438.65,434.68Z"/><rect class="cls-4" x="152.61" y="384.21" width="42.16" height="120" rx="12" ry="12"/></g></g></svg>