<svg xmlns="http://www.w3.org/2000/svg" viewBox="0 0 180.19 237.6"><defs><style>.cls-1{fill:#1a1a1a;}</style></defs><title>umasemana</title><g id="Camada_2" data-name="Camada 2"><g id="Camada_1-2" data-name="Camada 1"><path class="cls-1" d="M172,16.3A8.15,8.15,0,1,0,172,0H8.15a8.15,8.15,0,0,0,0,16.3h14V41.35C22.12,66.68,36,90,61.27,106.92c3.14,2.11,5.09,6.66,5.09,11.88s-2,9.77-5.09,11.88C36,147.63,22.12,170.92,22.12,196.25V221.3h-14a8.15,8.15,0,1,0,0,16.3H172a8.15,8.15,0,1,0,0-16.3h-14v-25c0-25.34-13.91-48.63-39.15-65.58-3.14-2.11-5.09-6.66-5.09-11.88s2-9.77,5.09-11.88c25.24-17,39.15-40.24,39.15-65.57v-25Zm-133.61,0H141.76V41.35c0,26.62-20,44-31.93,52-7.71,5.17-12.31,14.68-12.31,25.42s4.6,20.25,12.31,25.42c11.93,8,31.93,25.41,31.93,52V221.3H38.43V196.25c0-26.62,20-44,31.93-52,7.71-5.17,12.31-14.68,12.31-25.42s-4.6-20.25-12.31-25.42c-11.93-8-31.93-25.41-31.93-52Z"/><path class="cls-1" d="M48.85,197.26,89.4,131.94l40.06,65.36a8,8,0,0,1-6.82,12.18h-67A8,8,0,0,1,48.85,197.26Z"/><path class="cls-1" d="M74.29,61A2,2,0,0,1,76,57.85h26.46a3,3,0,0,1,2.51,4.65L90.21,84.85Z"/></g></g></svg>