<svg xmlns="http://www.w3.org/2000/svg" viewBox="0 0 957.09 855.01"><defs><style>.cls-1,.cls-17,.cls-18,.cls-21,.cls-3{fill:#1a1a1a;}.cls-19,.cls-2{fill:#f2f2f2;}.cls-3{font-size:34.59px;font-family:Qanelas-Medium, Qanelas;}.cls-4{letter-spacing:0em;}.cls-5{letter-spacing:-0.01em;}.cls-6{letter-spacing:-0.03em;}.cls-7{letter-spacing:-0.03em;}.cls-8{letter-spacing:0em;}.cls-9{letter-spacing:-0.03em;}.cls-10{letter-spacing:0em;}.cls-11{letter-spacing:-0.02em;}.cls-12{letter-spacing:-0.03em;}.cls-13{letter-spacing:0em;}.cls-14{letter-spacing:-0.06em;}.cls-15{letter-spacing:0em;}.cls-16{letter-spacing:-0.05em;}.cls-17,.cls-18{stroke:#1a1a1a;}.cls-17,.cls-18,.cls-21{stroke-miterlimit:10;}.cls-17{stroke-width:2px;}.cls-19{font-size:124.2px;font-family:Qanelas-Bold, Qanelas;font-weight:700;letter-spacing:-0.02em;}.cls-20{letter-spacing:0em;}.cls-21{stroke:#f8f8f8;}</style></defs><title>v1</title><g id="Camada_2" data-name="Camada 2"><g id="Aplicativo_Mobile" data-name="Aplicativo Mobile"><g id="Orientacao_Pesquisa"><path class="cls-1" d="M24.62,148.21A148.21,148.21,0,1,0,172.83,0,148.21,148.21,0,0,0,24.62,148.21Z"/><path class="cls-2" d="M808.88,498.37A148.21,148.21,0,1,0,957.09,646.58,148.21,148.21,0,0,0,808.88,498.37Z"/><text class="cls-3" transform="translate(0 344.18)">D<tspan class="cls-4" x="25.53" y="0">O</tspan><tspan x="53.03" y="0">S CONSUMIDORES</tspan><tspan x="20.6" y="41.51">BR</tspan><tspan class="cls-5" x="66.09" y="41.51">A</tspan><tspan x="87.78" y="41.51">SILEI</tspan><tspan class="cls-6" x="158.28" y="41.51">R</tspan><tspan class="cls-4" x="179.01" y="41.51">O</tspan><tspan x="206.51" y="41.51">S COM </tspan><tspan class="cls-7" x="15.24" y="83.03">A</tspan><tspan x="36.34" y="83.03">CES</tspan><tspan class="cls-8" x="99.58" y="83.03">S</tspan><tspan x="118.4" y="83.03">O À INTERNET</tspan></text><text class="cls-3" transform="translate(678.78 846.43)"><tspan xml:space="preserve"> E-COMME</tspan><tspan class="cls-9" x="172" y="0">R</tspan><tspan class="cls-10" x="192.72" y="0">CE</tspan></text><text class="cls-3" transform="translate(720.23 344.08)"><tspan class="cls-11">J</tspan><tspan x="17.75" y="0">Á UTILI</tspan><tspan class="cls-12" x="120.8" y="0">Z</tspan><tspan class="cls-13" x="138.1" y="0">O</tspan><tspan x="165.6" y="0">U</tspan></text><text class="cls-3" transform="translate(30.88 715.43)"><tspan class="cls-14">P</tspan><tspan class="cls-15" x="18.09" y="0">ARA COMPRAR A</tspan><tspan class="cls-16" x="291.07" y="0">L</tspan><tspan x="306.02" y="0">GO E</tspan></text><line class="cls-17" x1="427.22" y1="335.59" x2="530.01" y2="335.59"/><path class="cls-18" d="M538.59,324.42a1.17,1.17,0,0,0,.34,1.6l14.72,9.7-14.89,9.43a1.16,1.16,0,0,0-.36,1.6,1.14,1.14,0,0,0,1.58.38l16.42-10.41a1.19,1.19,0,0,0,.54-1,1.2,1.2,0,0,0-.52-1l-16.24-10.69a1.25,1.25,0,0,0-.61-.19A1.16,1.16,0,0,0,538.59,324.42Z"/><line class="cls-17" x1="563.19" y1="703.73" x2="460.4" y2="703.73"/><path class="cls-18" d="M451.82,692.55a1.17,1.17,0,0,1-.34,1.61l-14.72,9.69,14.89,9.43a1.18,1.18,0,0,1,.37,1.61,1.16,1.16,0,0,1-1.59.37L434,704.86a1.17,1.17,0,0,1,0-2l16.23-10.69a1.17,1.17,0,0,1,.62-.18A1.12,1.12,0,0,1,451.82,692.55Z"/><line class="cls-17" x1="812.94" y1="374.12" x2="812.94" y2="450.07"/><path class="cls-18" d="M824.11,456.41a1.43,1.43,0,0,0-1.61.25l-9.69,10.88-9.43-11a1.46,1.46,0,0,0-1.61-.27.74.74,0,0,0-.37,1.17l10.41,12.13a1.26,1.26,0,0,0,1,.4,1.31,1.31,0,0,0,1-.38l10.69-12a.7.7,0,0,0,.18-.45A.8.8,0,0,0,824.11,456.41Z"/><line class="cls-17" x1="198.49" y1="750.58" x2="198.49" y2="826.53"/><path class="cls-18" d="M209.66,832.87a1.45,1.45,0,0,0-1.61.25L198.36,844l-9.43-11a1.44,1.44,0,0,0-1.61-.27.73.73,0,0,0-.37,1.17L197.36,846a1.34,1.34,0,0,0,1,.4,1.36,1.36,0,0,0,1-.39L210,834a.68.68,0,0,0,.18-.45A.8.8,0,0,0,209.66,832.87Z"/><text class="cls-19" transform="translate(54.55 198.71)">5<tspan class="cls-20" x="66.82" y="0">9%</tspan></text><path class="cls-1" d="M780.7,608.8c15.5-.16,31,0,46.47-.08a2.21,2.21,0,0,1,2.23,3c-2.11,7.94-4.11,15.89-6.26,23.84a2.28,2.28,0,0,1-2.58,1.6H787.67a2.32,2.32,0,0,1-2.54-1.8c-2-7.79-4-15.66-6-23.45C778.71,610.68,779.25,608.92,780.7,608.8Zm13.51,45.88a5.08,5.08,0,1,1,4-6.15A5.13,5.13,0,0,1,794.21,654.68Zm24.35.08a5.16,5.16,0,0,1-5-5.83,5.08,5.08,0,0,1,10.1.47A5.15,5.15,0,0,1,818.56,654.76Zm29-42.7c-3.35.36-6.77-.08-10.13.22-2.72,9.68-5.34,19.37-8,29.09a2.26,2.26,0,0,1-2.46,1.84c-13,0-25.9,0-38.86,0-2.5.07-2.61-4-.07-4,12.59-.11,25.19.08,37.78-.07,2.88-9.76,5.34-19.67,8.14-29.47a1.84,1.84,0,0,1,1.88-1.39c3.79,0,7.59-.08,11.38,0C849.15,608.41,849.41,611.5,847.53,612.06Z"/><path class="cls-21" d="M940.05,526.48H668.28a7.27,7.27,0,0,0-7.28,7.27v189a7.28,7.28,0,0,0,7.28,7.28H778.93v26.77H750.4a3.73,3.73,0,1,0,0,7.45H857.92a3.73,3.73,0,1,0,0-7.45H829.39V730H940.05a7.27,7.27,0,0,0,7.27-7.28v-189A7.26,7.26,0,0,0,940.05,526.48Z"/><rect class="cls-21" x="670.76" y="536.37" width="266.8" height="159.69"/><path class="cls-21" d="M807.12,713.82a3,3,0,1,1-3-3A3,3,0,0,1,807.12,713.82Z"/><path class="cls-21" d="M790.48,713.82a3,3,0,1,1-3-3A3,3,0,0,1,790.48,713.82Z"/><path class="cls-21" d="M824.2,713.82a3,3,0,1,1-3-3A3,3,0,0,1,824.2,713.82Z"/><rect class="cls-21" x="900.34" y="712.82" width="11.36" height="2" rx="0.53" ry="0.53"/><rect class="cls-21" x="743.33" y="600.95" width="127.48" height="19.43"/><polygon class="cls-21" points="847.13 673.8 765.79 673.8 754.25 620.38 861.1 620.38 847.13 673.8"/><line class="cls-21" x1="787.64" y1="619.77" x2="792.5" y2="673.19"/><line class="cls-21" x1="818.17" y1="673.08" x2="825.11" y2="619.89"/><line class="cls-21" x1="759.72" y1="646.48" x2="854.42" y2="646.48"/><rect class="cls-21" x="778.87" y="554.26" width="11.04" height="64.35" transform="translate(309.86 -270.3) rotate(24.24)"/><rect class="cls-21" x="822.58" y="554.7" width="11.04" height="64.35" transform="translate(1810.47 842.04) rotate(159.24)"/></g></g></g></svg>