<svg xmlns="http://www.w3.org/2000/svg" viewBox="0 0 988.79 1163.95"><defs><style>.cls-1,.cls-25{fill:#f2f2f2;}.cls-2,.cls-23,.cls-24,.cls-26,.cls-3{fill:#1a1a1a;}.cls-3{font-size:34.59px;font-family:Qanelas-Medium, Qanelas;}.cls-4{letter-spacing:-0.02em;}.cls-5{letter-spacing:-0.05em;}.cls-6{letter-spacing:-0.03em;}.cls-7{letter-spacing:0em;}.cls-8{letter-spacing:0em;}.cls-9{letter-spacing:-0.03em;}.cls-10{letter-spacing:-0.04em;}.cls-11{letter-spacing:0em;}.cls-12{letter-spacing:0em;}.cls-13{letter-spacing:-0.03em;}.cls-14{letter-spacing:-0.03em;}.cls-15{letter-spacing:-0.04em;}.cls-16{letter-spacing:0em;}.cls-17{letter-spacing:-0.01em;}.cls-18{letter-spacing:-0.01em;}.cls-19{letter-spacing:0em;}.cls-20{letter-spacing:0em;}.cls-21{letter-spacing:-0.05em;}.cls-22{letter-spacing:-0.02em;}.cls-23,.cls-24,.cls-27{stroke:#1a1a1a;}.cls-23,.cls-24,.cls-26,.cls-27{stroke-miterlimit:10;}.cls-23{stroke-width:2px;}.cls-25{font-size:124.2px;font-family:Qanelas-Bold, Qanelas;font-weight:700;}.cls-26{stroke:#f8f8f8;}.cls-27{fill:none;}</style></defs><title>v2</title><g id="Camada_2" data-name="Camada 2"><g id="Aplicativo_Mobile" data-name="Aplicativo Mobile"><g id="Orientacao_Pesquisa"><path class="cls-1" d="M670.78,549.77A148.21,148.21,0,1,0,819,401.57,148.2,148.2,0,0,0,670.78,549.77Z"/><path class="cls-2" d="M202.74,0A148.21,148.21,0,1,0,351,148.21,148.21,148.21,0,0,0,202.74,0Z"/><text class="cls-3" transform="translate(716.08 758.04)">APLI<tspan class="cls-4" x="67.42" y="0">C</tspan><tspan class="cls-5" x="93.06" y="0">A</tspan><tspan x="113.36" y="0">TI</tspan><tspan class="cls-6" x="139.07" y="0">V</tspan><tspan class="cls-7" x="159.3" y="0">O</tspan><tspan x="186.81" y="0">S</tspan></text><text class="cls-3" transform="translate(36.82 351.4)">D<tspan class="cls-8" x="25.53" y="0">O</tspan><tspan x="53.03" y="0">S CONSUMIDORES</tspan></text><text class="cls-3" transform="translate(722.31 145.21)"><tspan class="cls-9">F</tspan><tspan x="16.16" y="0">AZEM IS</tspan><tspan class="cls-7" x="138.2" y="0">S</tspan><tspan x="157.02" y="0">O </tspan><tspan x="-43.99" y="41.51">C</tspan><tspan class="cls-10" x="-17.66" y="41.51">O</tspan><tspan x="8.63" y="41.51">TIDIANAMENTE</tspan><tspan x="8.74" y="83.03" xml:space="preserve"> SENDO </tspan><tspan class="cls-11" x="138.12" y="83.03">O</tspan><tspan class="cls-12" x="165.62" y="83.03">S</tspan></text><text class="cls-3" transform="translate(65.43 475.83)">DE VEN<tspan class="cls-13" x="113.29" y="0">D</tspan><tspan x="137.86" y="0">A DE </tspan><tspan x="-49.95" y="41.51">P</tspan><tspan class="cls-14" x="-29.79" y="41.51">R</tspan><tspan x="-9.06" y="41.51">O</tspan><tspan class="cls-8" x="18.61" y="41.51">D</tspan><tspan x="43.97" y="41.51">U</tspan><tspan class="cls-15" x="65.42" y="41.51">T</tspan><tspan class="cls-8" x="81.33" y="41.51">O</tspan><tspan class="cls-16" x="108.83" y="41.51">S U</tspan><tspan class="cls-17" x="157.92" y="41.51">S</tspan><tspan x="176.53" y="41.51">AD</tspan><tspan class="cls-18" x="224.13" y="41.51">O</tspan><tspan x="251.64" y="41.51">S</tspan><tspan x="-65.43" y="83.03">COMO </tspan><tspan class="cls-19" x="52.74" y="83.03">P</tspan><tspan class="cls-20" x="72.8" y="83.03" xml:space="preserve">OR  EXEMP</tspan><tspan class="cls-21" x="243.49" y="83.03">L</tspan><tspan x="258.43" y="83.03">O</tspan></text><text class="cls-3" transform="translate(656.11 994.57)">MAIS UTILIZAD<tspan class="cls-11" x="224.06" y="0">O</tspan><tspan class="cls-22" x="251.57" y="0">S</tspan><tspan x="269.87" y="0">, EM</tspan><tspan x="60.42" y="41.51">UMA </tspan><tspan class="cls-5" x="140.43" y="41.51">T</tspan><tspan x="155.97" y="41.51">AXA DE</tspan></text><line class="cls-23" x1="448.32" y1="133.5" x2="551.12" y2="133.5"/><path class="cls-24" d="M559.7,122.32a1.16,1.16,0,0,0,.34,1.61l14.72,9.69-14.89,9.44a1.17,1.17,0,0,0-.37,1.6,1.14,1.14,0,0,0,1.58.37l16.42-10.4a1.17,1.17,0,0,0,.54-1,1.14,1.14,0,0,0-.52-1L561.29,122a1.12,1.12,0,0,0-.62-.19A1.16,1.16,0,0,0,559.7,122.32Z"/><line class="cls-23" x1="562.09" y1="475.33" x2="459.29" y2="475.33"/><path class="cls-24" d="M450.71,464.15a1.16,1.16,0,0,1-.34,1.61l-14.72,9.69,14.89,9.44a1.17,1.17,0,0,1,.37,1.6,1.14,1.14,0,0,1-1.58.37l-16.42-10.4a1.14,1.14,0,0,1-.54-1,1.13,1.13,0,0,1,.52-1l16.23-10.69a1.14,1.14,0,0,1,1.59.34Z"/><line class="cls-23" x1="181.77" y1="600.5" x2="181.77" y2="676.45"/><path class="cls-24" d="M192.94,682.79a1.44,1.44,0,0,0-1.61.25l-9.69,10.88-9.43-11a1.46,1.46,0,0,0-1.61-.28.74.74,0,0,0-.37,1.17L180.63,696a1.33,1.33,0,0,0,1,.39,1.31,1.31,0,0,0,1-.38l10.69-12a.7.7,0,0,0,.18-.45A.8.8,0,0,0,192.94,682.79Z"/><path class="cls-1" d="M199.67,739.14A148.21,148.21,0,1,0,347.88,887.35,148.21,148.21,0,0,0,199.67,739.14Z"/><path class="cls-1" d="M149.86,1039.85c-.69.29-1.42.58-2.14.86m4.14-13.61a1.9,1.9,0,0,0,.37-.2c0,.06,0,.12,0,.18Zm1.16,7.1.28-.11a8.16,8.16,0,0,0,1.07-.53,17.4,17.4,0,0,1,.85,1.81A8.93,8.93,0,0,0,153,1034.2Z"/><line class="cls-23" x1="815.31" y1="260.61" x2="815.31" y2="336.56"/><path class="cls-24" d="M826.48,342.89a1.46,1.46,0,0,0-1.61.25L815.18,354l-9.43-11a1.44,1.44,0,0,0-1.61-.27.74.74,0,0,0-.37,1.17l10.41,12.13a1.28,1.28,0,0,0,1,.4,1.32,1.32,0,0,0,1-.39l10.69-12a.7.7,0,0,0,.18-.46A.81.81,0,0,0,826.48,342.89Z"/><line class="cls-23" x1="827.31" y1="1067.61" x2="827.31" y2="1143.56"/><path class="cls-24" d="M838.48,1149.89a1.46,1.46,0,0,0-1.61.25L827.18,1161l-9.43-11a1.44,1.44,0,0,0-1.61-.27.74.74,0,0,0-.37,1.17l10.41,12.13a1.28,1.28,0,0,0,1,.4,1.32,1.32,0,0,0,1-.39l10.69-12a.7.7,0,0,0,.18-.46A.81.81,0,0,0,838.48,1149.89Z"/><text class="cls-25" transform="translate(100.49 187.16)">27%</text><text></text><text class="cls-3" transform="translate(18.02 1098.28)">OLX, ME<tspan class="cls-6" x="127.34" y="0">R</tspan><tspan class="cls-4" x="148.06" y="0">C</tspan><tspan x="173.7" y="0">ADOLIVRE</tspan><tspan x="27.09" y="41.51">ENJOEI E </tspan><tspan class="cls-11" x="174.63" y="41.51">O</tspan><tspan x="202.13" y="41.51">UT</tspan><tspan class="cls-9" x="240.88" y="41.51">R</tspan><tspan class="cls-11" x="261.6" y="41.51">O</tspan><tspan class="cls-12" x="289.1" y="41.51">S</tspan></text><rect class="cls-26" x="741.67" y="409" width="166.23" height="282.59" rx="4.8" ry="4.8"/><rect class="cls-26" x="758.29" y="442.25" width="132.99" height="199.48"/><line class="cls-26" x1="794.86" y1="425.62" x2="854.71" y2="425.62"/><circle class="cls-26" cx="824.79" cy="666.66" r="14.96"/><rect class="cls-26" x="767.25" y="471.38" width="32.47" height="32.47"/><rect class="cls-26" x="808.55" y="471.38" width="32.47" height="32.47"/><rect class="cls-26" x="850.3" y="471.38" width="32.47" height="32.47"/><rect class="cls-26" x="767.25" y="521.74" width="32.47" height="32.47"/><rect class="cls-26" x="808.55" y="521.74" width="32.47" height="32.47"/><rect class="cls-26" x="850.3" y="521.74" width="32.47" height="32.47"/><rect class="cls-26" x="767.25" y="572.1" width="32.47" height="32.47"/><rect class="cls-26" x="808.55" y="572.1" width="32.47" height="32.47"/><rect class="cls-26" x="850.3" y="572.1" width="32.47" height="32.47"/><g id="Icone_SOQC" data-name="Icone SOQC"><rect class="cls-2" x="117.88" y="770.66" width="139.29" height="139.29"/><path class="cls-27" d="M230.35,772c-4.54-22.67-21.41-39.5-41.53-39.5s-37,16.83-41.53,39.5h83.06Z"/></g><path class="cls-26" d="M281.48,962.16a16.76,16.76,0,0,0-14.24-2.71L222.17,969a26,26,0,0,1-2.78.47c-5.3.57-12.76,1.14-18.54,1.14H163.38a4.4,4.4,0,0,1-4.41-4.4h0a6.39,6.39,0,0,1,6.37-6.38c6.91,0,34,0,39.7,0a12.29,12.29,0,0,0,7.11-2.21l.22-.15c7-4.89,6.92-12-.23-16.69l-.42-.27a10.79,10.79,0,0,0-5.95-1.79H116.22v59.77h90.4a185.22,185.22,0,0,0,49.11-6.63L278.12,986c.39-.11.77-.23,1.13-.37C289.2,981.86,290.17,968.29,281.48,962.16Z"/><rect class="cls-26" x="87.65" y="927.96" width="28.57" height="81.32" rx="3.12" ry="3.12"/></g></g></g></svg>