<svg xmlns="http://www.w3.org/2000/svg" viewBox="0 0 915.92 921.11"><defs><style>.cls-1,.cls-2,.cls-21,.cls-22,.cls-27{fill:#1a1a1a;}.cls-2{font-size:34.59px;font-family:Qanelas-Medium, Qanelas;}.cls-3{letter-spacing:-0.02em;}.cls-4{letter-spacing:-0.03em;}.cls-5{letter-spacing:0em;}.cls-6{letter-spacing:0em;}.cls-7{letter-spacing:-0.05em;}.cls-8{letter-spacing:-0.01em;}.cls-9{letter-spacing:-0.01em;}.cls-10{letter-spacing:-0.04em;}.cls-11{letter-spacing:-0.05em;}.cls-12{letter-spacing:-0.03em;}.cls-13{letter-spacing:0em;}.cls-14{letter-spacing:0em;}.cls-15{letter-spacing:-0.04em;}.cls-16{letter-spacing:-0.05em;}.cls-17{letter-spacing:-0.01em;}.cls-18{letter-spacing:0em;}.cls-19{letter-spacing:0em;}.cls-20{letter-spacing:-0.04em;}.cls-21,.cls-22,.cls-31{stroke:#1a1a1a;}.cls-21,.cls-22,.cls-27,.cls-28,.cls-29,.cls-31{stroke-miterlimit:10;}.cls-21{stroke-width:2px;}.cls-23,.cls-26{font-size:124.2px;fill:#f2f2f2;}.cls-23,.cls-26,.cls-32{font-family:Qanelas-Bold, Qanelas;font-weight:700;}.cls-23{letter-spacing:0em;}.cls-24{letter-spacing:-0.05em;}.cls-25{letter-spacing:0em;}.cls-26{letter-spacing:-0.01em;}.cls-27,.cls-28,.cls-29{stroke:#f8f8f8;}.cls-28,.cls-31{fill:none;}.cls-29,.cls-30,.cls-32{fill:#f8f8f8;}.cls-32{font-size:44.8px;}</style></defs><title>v3</title><g id="Camada_2" data-name="Camada 2"><g id="Aplicativo_Mobile" data-name="Aplicativo Mobile"><g id="Orientacao_Pesquisa"><path class="cls-1" d="M767.72,0a148.21,148.21,0,1,0,148.2,148.21A148.22,148.22,0,0,0,767.72,0Z"/><path class="cls-1" d="M0,143.23c0,81.86,66.35,153.21,148.21,153.21A148.21,148.21,0,0,0,148.21,0C66.35,0,0,61.38,0,143.23Z"/><text class="cls-2" transform="translate(634.29 871.02)">PEIXE UR<tspan class="cls-3" x="136.37" y="0">B</tspan><tspan x="159.37" y="0">ANO</tspan><tspan x="0" y="41.51" xml:space="preserve"> E G</tspan><tspan class="cls-4" x="62.62" y="41.51">R</tspan><tspan class="cls-5" x="83.34" y="41.51">O</tspan><tspan x="110.84" y="41.51">U</tspan><tspan class="cls-6" x="132.29" y="41.51">P</tspan><tspan x="152.35" y="41.51">ON</tspan></text><text class="cls-2" transform="translate(3.19 374.26)"><tspan class="cls-7">L</tspan><tspan class="cls-8" x="14.94" y="0">O</tspan><tspan class="cls-3" x="42.24" y="0">J</tspan><tspan class="cls-9" x="59.99" y="0">A</tspan><tspan x="81.68" y="0">S </tspan><tspan class="cls-10" x="109.32" y="0">V</tspan><tspan x="129.24" y="0">AREJI</tspan><tspan class="cls-3" x="217.87" y="0">S</tspan><tspan class="cls-11" x="236.17" y="0">T</tspan><tspan class="cls-9" x="251.71" y="0">A</tspan><tspan x="273.4" y="0">S</tspan><tspan x="57.74" y="41.51">N</tspan><tspan class="cls-12" x="79.71" y="41.51">A</tspan><tspan x="100.81" y="41.51">CIONAIS</tspan></text><text class="cls-2" transform="translate(21.28 686.12) scale(0.98 1)">AP<tspan class="cls-13" x="42.24" y="0">P</tspan><tspan class="cls-14" x="62.23" y="0">S DE OFE</tspan><tspan class="cls-15" x="204.79" y="0">R</tspan><tspan class="cls-16" x="225.21" y="0">T</tspan><tspan class="cls-17" x="240.74" y="0">A</tspan><tspan x="262.43" y="0">S E</tspan><tspan x="-9.74" y="41.51" xml:space="preserve"> DE</tspan><tspan class="cls-18" x="42.36" y="41.51">S</tspan><tspan class="cls-19" x="61.18" y="41.51">CON</tspan><tspan class="cls-20" x="137.15" y="41.51">T</tspan><tspan class="cls-18" x="153.06" y="41.51">O</tspan><tspan x="180.56" y="41.51">S COMO</tspan></text><line class="cls-21" x1="508.75" y1="148.3" x2="405.95" y2="148.3"/><path class="cls-22" d="M397.38,137.12a1.18,1.18,0,0,1-.34,1.61l-14.73,9.69,14.89,9.43a1.18,1.18,0,0,1,.37,1.61,1.14,1.14,0,0,1-1.58.37l-16.42-10.4a1.17,1.17,0,0,1-.54-1,1.16,1.16,0,0,1,.52-1l16.24-10.68a1.07,1.07,0,0,1,.61-.19A1.16,1.16,0,0,1,397.38,137.12Z"/><text class="cls-23" transform="translate(654.63 185.25)">4<tspan class="cls-24" x="73.15" y="0">6</tspan><tspan class="cls-25" x="135.25" y="0">%</tspan></text><text class="cls-26" transform="translate(32.51 192.25)">42<tspan class="cls-25" x="136.37" y="0">%</tspan></text><line class="cls-21" x1="162.14" y1="491.32" x2="162.14" y2="567.27"/><path class="cls-22" d="M173.32,573.61a1.44,1.44,0,0,0-1.61.25L162,584.74l-9.44-11a1.43,1.43,0,0,0-1.6-.27.73.73,0,0,0-.37,1.17L161,586.77a1.36,1.36,0,0,0,1,.4,1.33,1.33,0,0,0,1-.39l10.69-12a.65.65,0,0,0,.19-.45A.83.83,0,0,0,173.32,573.61Z"/><line class="cls-21" x1="369.07" y1="686.82" x2="472.7" y2="686.82"/><path class="cls-22" d="M481.35,677.14a.94.94,0,0,0,.34,1.4l14.85,8.39-15,8.17a.93.93,0,0,0-.37,1.39,1.26,1.26,0,0,0,1.59.32l16.56-9a1,1,0,0,0,.54-.85,1,1,0,0,0-.53-.85L483,676.85a1.34,1.34,0,0,0-.62-.17A1.23,1.23,0,0,0,481.35,677.14Z"/><path class="cls-27" d="M605.59,570.09l26.83,3.2a7.17,7.17,0,0,0,5.8-1.95l17.62-17a7.14,7.14,0,0,1,9.56-.31L686,571.36a7.15,7.15,0,0,0,6.27,1.49L712.63,568a7.14,7.14,0,0,1,8.7,5.71l4.27,24.4a7.12,7.12,0,0,0,3.63,5l22,12a7.16,7.16,0,0,1,3.12,9.18L744.3,647a7.16,7.16,0,0,0,.1,6l10,20.52a7.14,7.14,0,0,1-2.47,9.06l-21.36,14.24a7.11,7.11,0,0,0-3.08,4.74L723,727.62a7.14,7.14,0,0,1-8.24,5.84l-25.48-4.35a7.14,7.14,0,0,0-6.25,2l-17,17a7.14,7.14,0,0,1-10.1,0l-18.71-18.71a7.16,7.16,0,0,0-6.45-1.95l-23.87,4.78a7.14,7.14,0,0,1-8.5-6.24l-2.71-24.91a7.12,7.12,0,0,0-4-5.65l-22.44-10.92a7.14,7.14,0,0,1-3.19-9.76l10.72-20.26a7.11,7.11,0,0,0,.11-6.46L565.7,625.1a7.14,7.14,0,0,1,3.3-9.55l21.08-10.24A7.11,7.11,0,0,0,594,600l3.68-23.88A7.14,7.14,0,0,1,605.59,570.09Z"/><circle class="cls-28" cx="634.9" cy="627.49" r="14.99"/><circle class="cls-28" cx="686.94" cy="673.36" r="14.99"/><line class="cls-29" x1="689.59" y1="612.5" x2="631.37" y2="688.35"/><polygon class="cls-27" points="698.45 711.89 769.38 782.82 890.98 661.22 879.88 601.87 818.12 590.29 698.45 711.89"/><circle class="cls-30" cx="857.2" cy="625.51" r="9.17"/><path class="cls-31" d="M843.21,538.18l9.87,16.91a13.8,13.8,0,0,1,.58,12.8l-7.76,16.64a13.79,13.79,0,0,0-.06,11.55l6.59,14.51a13,13,0,0,1,.71,1.92L856.72,625"/><text class="cls-32" transform="translate(774.85 733.92) rotate(-45)">S</text><text class="cls-32" transform="translate(791.81 716.97) rotate(-45)">A<tspan x="29.24" y="0">L</tspan><tspan x="50.52" y="0">E</tspan></text></g></g></g></svg>