<svg xmlns="http://www.w3.org/2000/svg" viewBox="0 0 878.11 1263.2"><defs><style>.cls-1,.cls-2,.cls-20,.cls-21,.cls-23{fill:#1a1a1a;}.cls-2{font-size:34.59px;font-family:Qanelas-Medium, Qanelas;}.cls-3{letter-spacing:-0.01em;}.cls-4{letter-spacing:-0.03em;}.cls-5{letter-spacing:0em;}.cls-6{letter-spacing:-0.04em;}.cls-7{letter-spacing:-0.05em;}.cls-8{letter-spacing:-0.02em;}.cls-9{letter-spacing:-0.01em;}.cls-10{letter-spacing:-0.04em;}.cls-11{letter-spacing:-0.05em;}.cls-12{font-size:124.2px;font-family:Qanelas-Bold, Qanelas;font-weight:700;}.cls-12,.cls-22{fill:#f2f2f2;}.cls-13{letter-spacing:-0.02em;}.cls-14{letter-spacing:-0.05em;}.cls-15{letter-spacing:0em;}.cls-16{letter-spacing:-0.03em;}.cls-17{letter-spacing:-0.05em;}.cls-18{letter-spacing:0em;}.cls-19{letter-spacing:-0.04em;}.cls-20,.cls-21{stroke:#1a1a1a;}.cls-20,.cls-21,.cls-23{stroke-miterlimit:10;}.cls-20{stroke-width:2px;}.cls-23{stroke:#f8f8f8;}</style></defs><title>v4</title><g id="Camada_2" data-name="Camada 2"><g id="Aplicativo_Mobile" data-name="Aplicativo Mobile"><g id="Orientacao_Pesquisa"><path class="cls-1" d="M581.69,291.49A148.21,148.21,0,1,0,729.9,143.28,148.22,148.22,0,0,0,581.69,291.49Z"/><text class="cls-2" transform="translate(31.49 493.76)">29% COMPR<tspan class="cls-3" x="195.8" y="0">A</tspan><tspan x="217.49" y="0">S DE </tspan><tspan x="31.77" y="41.51">COMI</tspan><tspan class="cls-4" x="122.03" y="41.51">D</tspan><tspan class="cls-3" x="146.59" y="41.51">A</tspan><tspan x="168.28" y="41.51">S </tspan><tspan class="cls-5" x="195.92" y="41.51">P</tspan><tspan x="215.99" y="41.51">OR</tspan><tspan x="70.14" y="83.03" xml:space="preserve"> DELIVE</tspan><tspan class="cls-6" x="186.65" y="83.03">R</tspan><tspan x="206.89" y="83.03">Y</tspan></text><text class="cls-2" transform="translate(679.62 486.94)"><tspan class="cls-7">L</tspan><tspan class="cls-3" x="14.94" y="0">O</tspan><tspan class="cls-8" x="42.24" y="0">J</tspan><tspan class="cls-9" x="59.99" y="0">A</tspan><tspan x="81.68" y="0">S</tspan><tspan class="cls-10" x="-41.2" y="41.51">V</tspan><tspan x="-21.27" y="41.51">AREJI</tspan><tspan class="cls-8" x="67.35" y="41.51">S</tspan><tspan class="cls-11" x="85.65" y="41.51">T</tspan><tspan class="cls-9" x="101.19" y="41.51">A</tspan><tspan x="122.88" y="41.51">S</tspan><tspan x="-67.98" y="83.03">INTERN</tspan><tspan class="cls-4" x="41.38" y="83.03">A</tspan><tspan x="62.48" y="83.03">CINAIS</tspan></text><text class="cls-12" transform="translate(606.71 333.92)">3<tspan class="cls-13" x="67.69" y="0">0</tspan><tspan x="143.45" y="0">%</tspan></text><text class="cls-2" transform="translate(11.13 862.94)"><tspan class="cls-9">A</tspan><tspan x="21.69" y="0">S </tspan><tspan class="cls-14" x="49.33" y="0">L</tspan><tspan class="cls-9" x="64.28" y="0">O</tspan><tspan class="cls-8" x="91.57" y="0">J</tspan><tspan class="cls-9" x="109.32" y="0">A</tspan><tspan x="131.01" y="0">S </tspan><tspan class="cls-15" x="158.65" y="0">Q</tspan><tspan x="186.32" y="0">UE MAIS</tspan><tspan x="52.03" y="41.51"> </tspan><tspan class="cls-16" x="60.68" y="41.51">F</tspan><tspan class="cls-4" x="76.83" y="41.51">A</tspan><tspan x="97.94" y="41.51">CILI</tspan><tspan class="cls-17" x="157.85" y="41.51">T</tspan><tspan class="cls-18" x="173.39" y="41.51">AM O</tspan><tspan x="62.11" y="83.03" xml:space="preserve"> CRÉDI</tspan><tspan class="cls-19" x="170.74" y="83.03">T</tspan><tspan x="186.65" y="83.03">O E </tspan><tspan x="42.21" y="124.54">E</tspan><tspan class="cls-8" x="60.12" y="124.54">S</tspan><tspan x="78.43" y="124.54">TIMULAM </tspan><tspan class="cls-9" x="228.77" y="124.54">A</tspan><tspan x="250.46" y="124.54">S</tspan><tspan x="31.24" y="166.05" xml:space="preserve"> COMPR</tspan><tspan class="cls-9" x="163.7" y="166.05">A</tspan><tspan x="185.39" y="166.05">S </tspan><tspan class="cls-3" x="213.03" y="166.05">S</tspan><tspan class="cls-4" x="231.64" y="166.05">Ã</tspan><tspan x="252.74" y="166.05">O</tspan></text><text class="cls-2" transform="translate(624.39 1112.14)">29% VI<tspan class="cls-10" x="101.71" y="0">R</tspan><tspan x="122.12" y="0">T</tspan><tspan class="cls-8" x="139.41" y="0">U</tspan><tspan x="160.17" y="0">AIS</tspan></text><line class="cls-20" x1="384.82" y1="908.95" x2="488.45" y2="908.95"/><path class="cls-21" d="M497.1,899.27a.92.92,0,0,0,.34,1.39l14.85,8.4-15,8.16a.94.94,0,0,0-.37,1.39,1.27,1.27,0,0,0,1.6.32l16.55-9a1,1,0,0,0,.55-.85,1,1,0,0,0-.53-.85L498.7,899a1.36,1.36,0,0,0-.62-.16A1.21,1.21,0,0,0,497.1,899.27Z"/><line class="cls-20" x1="717.95" y1="1166.86" x2="717.95" y2="1242.81"/><path class="cls-21" d="M729.13,1249.14a1.44,1.44,0,0,0-1.61.26l-9.69,10.87-9.43-11a1.44,1.44,0,0,0-1.61-.27c-.54.25-.71.78-.37,1.17l10.4,12.13a1.28,1.28,0,0,0,1,.4,1.32,1.32,0,0,0,1-.39l10.68-12a.67.67,0,0,0,.19-.46A.81.81,0,0,0,729.13,1249.14Z"/><line class="cls-20" x1="171.41" y1="644" x2="171.41" y2="719.95"/><path class="cls-21" d="M182.59,726.29a1.42,1.42,0,0,0-1.61.25l-9.69,10.88-9.44-11a1.44,1.44,0,0,0-1.6-.27c-.54.25-.71.78-.37,1.17l10.4,12.13a1.28,1.28,0,0,0,1,.4,1.35,1.35,0,0,0,1-.38l10.68-12a.66.66,0,0,0,.19-.45A.82.82,0,0,0,182.59,726.29Z"/><line class="cls-20" x1="515.02" y1="284.97" x2="412.23" y2="284.97"/><path class="cls-21" d="M403.65,273.79a1.18,1.18,0,0,1-.34,1.61l-14.73,9.7,14.9,9.43a1.17,1.17,0,0,1,.36,1.6,1.14,1.14,0,0,1-1.58.38L385.84,286.1a1.16,1.16,0,0,1-.54-1,1.2,1.2,0,0,1,.52-1l16.24-10.69a1.25,1.25,0,0,1,.61-.19A1.17,1.17,0,0,1,403.65,273.79Z"/><line class="cls-20" x1="727.41" x2="727.41" y2="75.95"/><path class="cls-21" d="M738.59,82.29a1.42,1.42,0,0,0-1.61.25l-9.69,10.88-9.44-11a1.44,1.44,0,0,0-1.6-.27c-.54.25-.71.78-.37,1.17l10.4,12.13a1.28,1.28,0,0,0,1,.4,1.35,1.35,0,0,0,1-.38l10.68-12a.66.66,0,0,0,.19-.45A.82.82,0,0,0,738.59,82.29Z"/><path class="cls-22" d="M174.39,212.43a71.89,71.89,0,1,0,71.89,71.89A71.89,71.89,0,0,0,174.39,212.43Zm52.36,58.76c.19.75.42,1.49.58,2.27.23,1.1.36,2.24.51,3.36.1.67.24,1.32.31,2,.18,1.81.27,3.65.27,5.51s-.09,3.7-.27,5.51c-.07.68-.21,1.32-.31,2-.15,1.13-.28,2.26-.51,3.37-.16.77-.39,1.51-.58,2.27-.24,1-.45,2-.74,2.89s-.6,1.63-.9,2.45-.57,1.69-.91,2.5-.8,1.67-1.21,2.51-.67,1.49-1.06,2.21c-.47.87-1,1.71-1.54,2.56-.39.62-.74,1.27-1.15,1.88-.6.88-1.26,1.72-1.91,2.57-.4.52-.76,1.07-1.18,1.58-.72.87-1.5,1.68-2.27,2.51-.41.43-.78.89-1.2,1.31-.83.84-1.72,1.61-2.6,2.39-.41.36-.79.75-1.21,1.1-.94.77-1.93,1.48-2.92,2.2-.41.29-.8.62-1.21.9-1,.7-2.11,1.33-3.18,2-.42.25-.83.53-1.26.77-1.1.6-2.24,1.12-3.39,1.65-.44.2-.86.44-1.3.63-1.16.49-2.36.91-3.55,1.32-.47.16-.92.36-1.39.51-1.2.37-2.42.66-3.65,1-.5.12-1,.28-1.51.39-1.2.25-2.43.41-3.66.58-.56.08-1.12.2-1.69.26-1.19.12-2.4.16-3.61.2-.59,0-1.18.1-1.77.11v0l-.39,0a54,54,0,1,1,0-108.06l.39,0h0c.48,0,.95.06,1.43.08,1.33,0,2.67.09,4,.23.47,0,.92.15,1.39.21,1.33.17,2.66.36,4,.63.43.09.84.22,1.27.32,1.31.31,2.62.63,3.89,1,.4.12.77.29,1.16.42,1.28.44,2.55.88,3.78,1.41.38.16.74.36,1.11.54,1.21.55,2.42,1.1,3.58,1.74.38.21.73.45,1.11.67,1.12.65,2.25,1.31,3.32,2,.38.26.73.56,1.11.83,1,.74,2.05,1.47,3,2.28.39.32.75.69,1.13,1,.91.8,1.83,1.6,2.68,2.46.41.4.76.85,1.15,1.26.79.84,1.59,1.68,2.32,2.57.41.49.76,1,1.15,1.53.66.86,1.33,1.71,1.94,2.61.4.6.75,1.24,1.13,1.86.53.86,1.08,1.7,1.56,2.59.39.71.7,1.46,1.06,2.19s.84,1.66,1.21,2.52.61,1.67.91,2.51.64,1.61.9,2.44S226.51,270.22,226.75,271.19Zm-1.53,13.13a50.83,50.83,0,1,1-50.83-50.83A50.83,50.83,0,0,1,225.22,284.32Zm46.58-56.13V347a6.77,6.77,0,0,1-4.72,6.6v0a5.62,5.62,0,0,1-1.59.25,6.39,6.39,0,0,1-6.32-6.88c1.22-11.33,7.78-35.67,4.41-45.38-1.92-5.55-9-15.59-9-32.25,0-31,7.26-42.08,12.28-44.67l.21-.07C269.29,223.65,271.8,225.46,271.8,228.19ZM93.48,225a313.77,313.77,0,0,1,2.9,36.86c0,11.44-2.33,11.3-9.11,14l2.5,71.43c0,3.79-2.84,6.89-6.32,6.89a6.85,6.85,0,0,1-.91-.1v0a6.69,6.69,0,0,1-5.4-6.75l2.5-71.43c-6.78-2.7-9.11-2.57-9.11-14A314.44,314.44,0,0,1,73.39,225H75l.36,40.4h3.32l.84-40.4h1.56l.72,40.4h3.32l.8-40.4h1.72l.74,40.4h3.32L92,225Z"/><path class="cls-1" d="M176.09,174.21A121.9,121.9,0,1,0,298,296.11,121.9,121.9,0,0,0,176.09,174.21Zm88.78,99.63c.32,1.28.71,2.54,1,3.84.38,1.88.61,3.8.87,5.71.16,1.13.4,2.23.51,3.37a91.21,91.21,0,0,1,0,18.69c-.11,1.14-.35,2.24-.51,3.37-.26,1.91-.49,3.84-.87,5.71-.27,1.31-.66,2.56-1,3.85-.42,1.64-.77,3.31-1.27,4.91-.43,1.41-1,2.76-1.51,4.14s-1,2.87-1.55,4.25-1.35,2.84-2,4.25c-.6,1.25-1.14,2.53-1.8,3.74-.81,1.49-1.74,2.9-2.62,4.34-.66,1.06-1.25,2.16-1.94,3.19-1,1.51-2.15,2.92-3.24,4.36-.68.89-1.3,1.82-2,2.68-1.21,1.48-2.54,2.86-3.84,4.26-.69.73-1.32,1.51-2,2.23-1.41,1.41-2.92,2.72-4.42,4-.69.61-1.34,1.27-2,1.86-1.59,1.32-3.27,2.52-5,3.73-.69.5-1.35,1.06-2.06,1.54-1.74,1.18-3.56,2.24-5.38,3.31-.72.41-1.4.89-2.13,1.29-1.87,1-3.81,1.91-5.76,2.81-.74.34-1.45.74-2.2,1.06-2,.84-4,1.53-6,2.23-.79.28-1.56.62-2.36.87-2,.64-4.1,1.13-6.18,1.62-.86.21-1.69.48-2.57.67-2,.42-4.11.7-6.19,1-1,.14-1.9.34-2.88.44-2,.22-4.07.27-6.12.35-1,0-2,.17-3,.18v0c-.22,0-.44,0-.66,0a91.61,91.61,0,0,1,0-183.22l.66,0v0c.82,0,1.62.11,2.44.14,2.25.08,4.51.15,6.72.39.8.08,1.56.25,2.35.36,2.26.3,4.51.6,6.71,1.06.73.15,1.42.39,2.14.56,2.22.52,4.44,1,6.6,1.73.67.21,1.31.49,2,.72,2.17.74,4.32,1.49,6.4,2.39.65.27,1.26.62,1.89.91,2.06.93,4.1,1.87,6.07,2.95.65.36,1.24.77,1.88,1.14,1.91,1.11,3.81,2.22,5.63,3.46.65.44,1.24.94,1.88,1.4,1.74,1.25,3.48,2.5,5.13,3.87.66.55,1.26,1.16,1.9,1.73,1.55,1.36,3.11,2.71,4.56,4.17.68.68,1.29,1.44,1.95,2.14,1.33,1.43,2.68,2.84,3.93,4.35.68.83,1.28,1.74,1.94,2.6,1.12,1.46,2.27,2.9,3.3,4.43.68,1,1.26,2.1,1.9,3.14.9,1.46,1.84,2.89,2.66,4.39.65,1.21,1.19,2.48,1.79,3.72.69,1.42,1.43,2.81,2.05,4.27s1,2.84,1.55,4.25,1.08,2.74,1.51,4.15C264.1,270.53,264.45,272.19,264.87,273.84Zm-2.59,22.27a86.19,86.19,0,1,1-86.19-86.19A86.18,86.18,0,0,1,262.28,296.11Zm79-95.18v201.4a11.47,11.47,0,0,1-8,11.19v.05a9.78,9.78,0,0,1-2.71.43c-5.89,0-11.39-5.29-10.7-11.67,2.07-19.21,13.19-60.48,7.48-76.94-3.27-9.41-15.26-26.44-15.26-54.68,0-52.57,12.31-71.35,20.83-75.73.12-.06.24-.07.36-.13C337,193.24,341.25,196.31,341.25,200.93ZM38.92,195.54c2.51,16.25,4.91,46.7,4.91,62.49,0,19.39-3.95,19.16-15.44,23.75l4.24,121.11c0,6.42-4.82,11.67-10.71,11.67a9.93,9.93,0,0,1-1.55-.17v-.06c-5.15-.83-9.16-5.61-9.16-11.44l4.24-121.11C4,277.2,0,277.42,0,258c0-15.79,2.38-46.6,4.86-62.49h2.7L8.18,264h5.63l1.41-68.5h2.65L19.1,264h5.63l1.35-68.5H29L30.25,264h5.63l.48-68.5Z"/><path class="cls-23" d="M854.18,817H581a7.31,7.31,0,0,0-7.31,7.31V1014.2a7.32,7.32,0,0,0,7.31,7.31H692.25v26.9H663.57a3.75,3.75,0,0,0,0,7.49H771.64a3.75,3.75,0,1,0,0-7.49H743v-26.9H854.18a7.31,7.31,0,0,0,7.31-7.31V824.29A7.31,7.31,0,0,0,854.18,817Z"/><rect class="cls-23" x="583.53" y="826.92" width="268.15" height="160.5"/></g></g></g></svg>