<svg xmlns="http://www.w3.org/2000/svg" viewBox="0 0 905.49 385.79"><defs><style>.cls-1{font-size:34.59px;font-family:Qanelas-Medium, Qanelas;}.cls-1,.cls-13,.cls-14,.cls-15{fill:#1a1a1a;}.cls-2{letter-spacing:-0.03em;}.cls-3{letter-spacing:-0.02em;}.cls-4{letter-spacing:0em;}.cls-5{letter-spacing:-0.05em;}.cls-6{letter-spacing:-0.01em;}.cls-7{letter-spacing:-0.02em;}.cls-8{letter-spacing:-0.06em;}.cls-9{letter-spacing:0em;}.cls-10{letter-spacing:-0.04em;}.cls-11{letter-spacing:-0.05em;}.cls-12{letter-spacing:-0.04em;}.cls-13,.cls-14{stroke:#1a1a1a;}.cls-13,.cls-14,.cls-15{stroke-miterlimit:10;}.cls-13{stroke-width:2px;}.cls-15{stroke:#f8f8f8;}</style></defs><title>v5</title><g id="Camada_2" data-name="Camada 2"><g id="Aplicativo_Mobile" data-name="Aplicativo Mobile"><g id="Orientacao_Pesquisa"><text class="cls-1" transform="translate(552.94 354.63)">19% SUPERME<tspan class="cls-2" x="212.09" y="0">R</tspan><tspan class="cls-3" x="232.82" y="0">C</tspan><tspan x="258.45" y="0">AD</tspan><tspan class="cls-4" x="306.05" y="0">O</tspan><tspan x="333.55" y="0">S</tspan></text><text class="cls-1" transform="translate(41.28 335.69)">17% <tspan class="cls-5" x="64.34" y="0">L</tspan><tspan class="cls-6" x="79.29" y="0">O</tspan><tspan class="cls-7" x="106.58" y="0">J</tspan><tspan class="cls-6" x="124.33" y="0">A</tspan><tspan x="146.02" y="0" xml:space="preserve">S DE  </tspan><tspan x="-9.27" y="41.51">DE</tspan><tspan class="cls-8" x="34.18" y="41.51">P</tspan><tspan class="cls-9" x="52.27" y="41.51">A</tspan><tspan class="cls-10" x="74.34" y="41.51">R</tspan><tspan class="cls-11" x="94.75" y="41.51">T</tspan><tspan x="110.29" y="41.51">AMEN</tspan><tspan class="cls-12" x="200.09" y="41.51">T</tspan><tspan x="216" y="41.51">O</tspan></text><line class="cls-13" x1="496.4" y1="118.91" x2="393.6" y2="118.91"/><path class="cls-14" d="M385,107.73a1.18,1.18,0,0,1-.34,1.61L370,119l14.89,9.44a1.17,1.17,0,0,1,.37,1.6,1.14,1.14,0,0,1-1.58.37L367.22,120a1.17,1.17,0,0,1-.54-1,1.14,1.14,0,0,1,.52-1l16.24-10.69a1.07,1.07,0,0,1,.61-.19A1.19,1.19,0,0,1,385,107.73Z"/><path class="cls-15" d="M27.7,60.18,81,.5h8.53L54.34,60.18V74.24H73.17V60.18L108.69.5h6.39L97.32,58.76V74.24h17.76V60.18L132.85.5h5V74.24h24.06L159.85.5h7.81l14.21,51.6V74.24h22V60.89L188.27.5h9.23l30.55,60.39V74.24h19.18V60.89L211,.5h9.24l51.15,59.68V103.7H261.33v73H37.76v-73H27.7ZM298.59,214H.5a28,28,0,0,1,28-27.94H270.64A28,28,0,0,1,298.59,214Z"/><rect class="cls-15" x="585.35" y="70.81" width="290.01" height="168.37"/><rect class="cls-15" x="575.07" y="231.06" width="310.56" height="8.12"/><rect class="cls-15" x="599.24" y="85.71" width="54.17" height="153.47"/><rect class="cls-15" x="668.3" y="85.71" width="53.71" height="130.45"/><rect class="cls-15" x="805.98" y="85.71" width="53.71" height="130.45"/><rect class="cls-15" x="737.37" y="85.71" width="53.71" height="130.45"/><rect class="cls-15" x="575.07" y="55.15" width="310.56" height="15.66"/><rect class="cls-15" x="660.18" y="216.16" width="207.19" height="23.02"/><rect class="cls-15" x="606.46" y="135.22" width="7.68" height="64.3"/><rect class="cls-15" x="764.23" y="216.16" width="103.14" height="23.02"/><rect class="cls-15" x="585.35" y="70.81" width="290.01" height="8.12"/></g></g></g></svg>