<svg xmlns="http://www.w3.org/2000/svg" viewBox="0 0 366.47 413.32"><defs><style>.cls-1{fill:#1a1a1a;}.cls-2{font-size:41.33px;fill:#fff;font-family:Qanelas-Medium, Qanelas;}.cls-3{letter-spacing:0em;}.cls-4{letter-spacing:0em;}.cls-5{letter-spacing:-0.01em;}.cls-6{letter-spacing:-0.03em;}.cls-7{letter-spacing:-0.02em;}.cls-8{fill:#f2f2f2;stroke:#1a1a1a;stroke-linecap:round;stroke-linejoin:round;stroke-width:5px;}</style></defs><title>vn1</title><g id="Camada_2" data-name="Camada 2"><g id="Aplicativo_Mobile" data-name="Aplicativo Mobile"><g id="Consumo_do_Lixo" data-name="Consumo do Lixo"><rect class="cls-1" x="1.84" width="362.8" height="413.32"/><text class="cls-2" transform="translate(19.96 339.32)"><tspan class="cls-3">C</tspan><tspan x="31.25" y="0">a</tspan><tspan class="cls-4" x="52" y="0">r</tspan><tspan class="cls-5" x="65.51" y="0">t</tspan><tspan x="78.41" y="0">ão de c</tspan><tspan class="cls-6" x="218.07" y="0">r</tspan><tspan x="230.3" y="0">édi</tspan><tspan class="cls-7" x="289.16" y="0">t</tspan><tspan x="301.68" y="0">o</tspan></text><rect class="cls-8" x="86.11" y="89.86" width="194.26" height="109.15" rx="12" ry="12"/><rect class="cls-8" x="86.11" y="115.2" width="194.26" height="22.74"/><path class="cls-8" d="M237.43,169.38a15.58,15.58,0,0,1,7.81-13.51,15.61,15.61,0,1,0,0,27A15.6,15.6,0,0,1,237.43,169.38Z"/><path class="cls-8" d="M253,153.76a15.48,15.48,0,0,0-7.8,2.11,15.6,15.6,0,0,1,0,27,15.61,15.61,0,1,0,7.8-29.13Z"/></g></g></g></svg>