<svg xmlns="http://www.w3.org/2000/svg" viewBox="0 0 367.47 414.32"><defs><style>.cls-1,.cls-5,.cls-6{fill:#c63b34;}.cls-1{stroke:#f2f2f2;stroke-miterlimit:10;}.cls-2{font-size:41.33px;fill:#fff;font-family:Qanelas-Medium, Qanelas;}.cls-3{letter-spacing:-0.03em;}.cls-4{fill:#f2f2f2;}.cls-6{font-size:34.58px;font-family:Qanelas-Bold, Qanelas;font-weight:700;letter-spacing:0.02em;}</style></defs><title>vn2-active</title><g id="Camada_2" data-name="Camada 2"><g id="Aplicativo_Mobile" data-name="Aplicativo Mobile"><g id="Consumo_do_Lixo" data-name="Consumo do Lixo"><rect class="cls-1" x="0.5" y="0.5" width="366.47" height="413.32"/><text class="cls-2" transform="translate(107.42 339.82)">Dinhei<tspan class="cls-3" x="115.52" y="0">r</tspan><tspan x="127.76" y="0">o</tspan></text><rect class="cls-4" x="66.64" y="85.02" width="234.2" height="119.84"/><path class="cls-5" d="M257,93.73c0-.17,0-.34,0-.51l-146.22,0v.51A36.81,36.81,0,0,1,74,130.58h-.17v29.1H74a36.82,36.82,0,0,1,36.82,36.8c0,.06,0,.12,0,.17l146.21,0v-.17a36.8,36.8,0,0,1,36.63-36.81V130.53A36.82,36.82,0,0,1,257,93.73Z"/><circle class="cls-4" cx="183.57" cy="144.94" r="28.76"/><text class="cls-6" transform="translate(174.14 155.54) rotate(-0.01)">$</text></g></g></g></svg>