<svg xmlns="http://www.w3.org/2000/svg" viewBox="0 0 366.47 413.32"><defs><style>.cls-1,.cls-5{fill:#1a1a1a;}.cls-2{font-size:41.33px;fill:#fff;font-family:Qanelas-Medium, Qanelas;}.cls-3{letter-spacing:-0.03em;}.cls-4{fill:#f2f2f2;}.cls-5{font-size:34.58px;font-family:Qanelas-Bold, Qanelas;font-weight:700;letter-spacing:0.02em;}</style></defs><title>vn2</title><g id="Camada_2" data-name="Camada 2"><g id="Aplicativo_Mobile" data-name="Aplicativo Mobile"><g id="Consumo_do_Lixo" data-name="Consumo do Lixo"><rect class="cls-1" width="366.47" height="413.32"/><text class="cls-2" transform="translate(106.92 339.32)">Dinhei<tspan class="cls-3" x="115.52" y="0">r</tspan><tspan x="127.76" y="0">o</tspan></text><rect class="cls-4" x="66.14" y="84.52" width="234.2" height="119.84"/><path class="cls-1" d="M256.5,93.23c0-.17,0-.34,0-.51l-146.22,0v.51a36.81,36.81,0,0,1-36.8,36.82h-.17v29.1h.17A36.82,36.82,0,0,1,110.32,196c0,.06,0,.12,0,.17l146.21,0V196a36.8,36.8,0,0,1,36.63-36.81V130A36.82,36.82,0,0,1,256.5,93.23Z"/><circle class="cls-4" cx="183.07" cy="144.44" r="28.76"/><text class="cls-5" transform="translate(173.65 155.04) rotate(-0.01)">$</text></g></g></g></svg>